<?xml version="1.0" encoding="UTF-8" standalone="no"?><svg xmlns="http://www.w3.org/2000/svg" xmlns:xlink="http://www.w3.org/1999/xlink" contentScriptType="application/ecmascript" contentStyleType="text/css" height="438px" preserveAspectRatio="none" style="width:391px;height:438px;background:#FFFFFF;" version="1.1" viewBox="0 0 391 438" width="391px" zoomAndPan="magnify"><defs><filter height="300%" id="fgs90t5rudz1d" width="300%" x="-1" y="-1"><feGaussianBlur result="blurOut" stdDeviation="2.0"/><feColorMatrix in="blurOut" result="blurOut2" type="matrix" values="0 0 0 0 0 0 0 0 0 0 0 0 0 0 0 0 0 0 .4 0"/><feOffset dx="4.0" dy="4.0" in="blurOut2" result="blurOut3"/><feBlend in="SourceGraphic" in2="blurOut3" mode="normal"/></filter></defs><g><rect fill="#F8F8F8" filter="url(#fgs90t5rudz1d)" height="419.6094" rx="12.5" ry="12.5" style="stroke:#383838;stroke-width:1.5;" width="372.9225" x="7" y="7"/><rect fill="#FFFFFF" height="386" rx="12.5" ry="12.5" style="stroke:#FFFFFF;stroke-width:1.0;" width="366.9225" x="10" y="37.6094"/><line style="stroke:#383838;stroke-width:1.5;" x1="7" x2="379.9225" y1="34.6094" y2="34.6094"/><text fill="#000000" font-family="Helvetica" font-size="14" font-weight="bold" lengthAdjust="spacing" textLength="110" x="138.4612" y="26.5332">TrafficLightFSM</text><g id="TrafficLightFSM.OFF"><rect fill="#F8F8F8" filter="url(#fgs90t5rudz1d)" height="50" rx="12.5" ry="12.5" style="stroke:#383838;stroke-width:1.5;" width="50" x="91.9223" y="46.6094"/><line style="stroke:#383838;stroke-width:1.5;" x1="91.9223" x2="141.9223" y1="74.2188" y2="74.2188"/><text fill="#000000" font-family="Helvetica" font-size="14" font-weight="bold" lengthAdjust="spacing" textLength="29" x="102.4223" y="66.1426">OFF</text></g><g id="TrafficLightFSM.GREEN"><rect fill="#F8F8F8" filter="url(#fgs90t5rudz1d)" height="50" rx="12.5" ry="12.5" style="stroke:#383838;stroke-width:1.5;" width="69" x="112.4223" y="150.6094"/><line style="stroke:#383838;stroke-width:1.5;" x1="112.4223" x2="181.4223" y1="178.2188" y2="178.2188"/><text fill="#000000" font-family="Helvetica" font-size="14" font-weight="bold" lengthAdjust="spacing" textLength="49" x="122.4223" y="170.1426">GREEN</text></g><g id="TrafficLightFSM.RED"><rect fill="#F8F8F8" filter="url(#fgs90t5rudz1d)" height="50" rx="12.5" ry="12.5" style="stroke:#383838;stroke-width:1.5;" width="50" x="81.9223" y="358.6094"/><line style="stroke:#383838;stroke-width:1.5;" x1="81.9223" x2="131.9223" y1="386.2188" y2="386.2188"/><text fill="#000000" font-family="Helvetica" font-size="14" font-weight="bold" lengthAdjust="spacing" textLength="29" x="92.4223" y="378.1426">RED</text></g><g id="TrafficLightFSM.AMBER"><rect fill="#F8F8F8" filter="url(#fgs90t5rudz1d)" height="50" rx="12.5" ry="12.5" style="stroke:#383838;stroke-width:1.5;" width="71" x="166.4225" y="254.6094"/><line style="stroke:#383838;stroke-width:1.5;" x1="166.4225" x2="237.4225" y1="282.2188" y2="282.2188"/><text fill="#000000" font-family="Helvetica" font-size="14" font-weight="bold" lengthAdjust="spacing" textLength="51" x="176.4225" y="274.1426">AMBER</text></g><!--MD5=[e27f70f9774c911d8da803e11ecaf87b]
link OFF to GREEN--><path d="M114.167,96.7814 C113.6884,107.9354 114.262,121.2014 117.9223,132.6094 C119.4249,137.2924 121.6389,141.9184 124.1854,146.2924 " fill="none" id="OFF-to-GREEN" style="stroke:#383838;stroke-width:1.0;"/><polygon fill="#383838" points="126.8285,150.5754,125.5038,140.816,124.2017,146.321,118.6968,145.0189,126.8285,150.5754" style="stroke:#383838;stroke-width:1.0;"/><text fill="#000000" font-family="monospace" font-size="13" font-weight="bold" lengthAdjust="spacing" textLength="16" x="118.9223" y="128.6792">GO</text><!--MD5=[4a4d81881a2961b63b71121a82b0b7cb]
link OFF to RED--><path d="M91.8728,91.2484 C84.0831,97.9604 75.9634,106.0144 69.9223,114.6094 C41.2565,155.3914 37.4302,169.6754 27.9223,218.6094 C18,269.6764 53.5009,322.8776 80.1127,354.3543 " fill="none" id="OFF-to-RED" style="stroke:#383838;stroke-width:1.0;"/><polygon fill="#383838" points="83.6385,358.4604,80.8101,349.0264,80.3812,354.6669,74.7406,354.238,83.6385,358.4604" style="stroke:#383838;stroke-width:1.0;"/><text fill="#000000" font-family="monospace" font-size="13" font-weight="bold" lengthAdjust="spacing" textLength="32" x="28.9224" y="232.6792">STOP</text><!--MD5=[f93beee92959f0017afd202ade278c45]
link RED to GREEN--><path d="M111.6212,358.4101 C118.998,320.4198 133.2725,246.9044 141.2245,205.9554 " fill="none" id="RED-to-GREEN" style="stroke:#383838;stroke-width:1.0;"/><polygon fill="#383838" points="142.2555,200.6434,136.6137,208.7162,141.3027,205.5517,144.4671,210.2407,142.2555,200.6434" style="stroke:#383838;stroke-width:1.0;"/><text fill="#000000" font-family="monospace" font-size="13" font-weight="bold" lengthAdjust="spacing" textLength="16" x="132.9225" y="284.6792">GO</text><!--MD5=[94abb4295b53f522f70cdaa97cba5858]
link RED to RED--><path d="M132.0975,373.8975 C141.8315,373.4658 149.9225,376.7031 149.9225,383.6094 C149.9225,389.2207 144.5815,392.41 137.3575,393.1772 " fill="none" id="RED-to-RED" style="stroke:#383838;stroke-width:1.0;"/><polygon fill="#383838" points="132.0975,393.3213,141.2038,397.0729,137.0956,393.1841,140.9844,389.0759,132.0975,393.3213" style="stroke:#383838;stroke-width:1.0;"/><text fill="#000000" font-family="monospace" font-size="13" font-weight="bold" lengthAdjust="spacing" textLength="32" x="155.9225" y="388.6792">STOP</text><!--MD5=[83bb5d6e0a44a6b79608fbe7f8a726f4]
link RED to OFF--><path d="M104.8302,358.5024 C101.5399,316.281 96.1883,226.2454 102.9223,150.6094 C104.3676,134.3764 107.4727,116.4664 110.3923,101.9064 " fill="none" id="RED-to-OFF" style="stroke:#383838;stroke-width:1.0;"/><polygon fill="#383838" points="111.4561,96.7024,105.7346,104.7189,110.4547,101.6011,113.5725,106.3212,111.4561,96.7024" style="stroke:#383838;stroke-width:1.0;"/><text fill="#000000" font-family="monospace" font-size="13" font-weight="bold" lengthAdjust="spacing" textLength="24" x="100.9223" y="232.6792">OFF</text><!--MD5=[15a05beae452f3a43ad42f789ef833a9]
link AMBER to RED--><path d="M179.4085,304.7824 C165.5495,319.6627 147.7225,338.8032 133.2155,354.3786 " fill="none" id="AMBER-to-RED" style="stroke:#383838;stroke-width:1.0;"/><polygon fill="#383838" points="129.6035,358.2569,138.664,354.3959,133.0107,354.5975,132.8091,348.9443,129.6035,358.2569" style="stroke:#383838;stroke-width:1.0;"/><text fill="#000000" font-family="monospace" font-size="13" font-weight="bold" lengthAdjust="spacing" textLength="208" x="161.9225" y="336.6792">«timeout = {amberTimeout}»</text><!--MD5=[a77ae1ae3527a193b953c7703557f870]
link AMBER to AMBER--><path d="M237.6755,269.9074 C247.7155,270.3324 255.4225,273.5664 255.4225,279.6094 C255.4225,284.5194 250.3345,287.5744 243.0415,288.7764 " fill="none" id="AMBER-to-AMBER" style="stroke:#383838;stroke-width:1.0;"/><polygon fill="#383838" points="237.6755,289.3114,247.0277,292.3994,242.6509,288.8157,246.2346,284.4389,237.6755,289.3114" style="stroke:#383838;stroke-width:1.0;"/><text fill="#000000" font-family="monospace" font-size="13" font-weight="bold" lengthAdjust="spacing" textLength="32" x="261.4225" y="284.6792">STOP</text><!--MD5=[0a186c4917f8cf122366db5dc94fe483]
link AMBER to OFF--><path d="M203.2825,254.1864 C203.5485,248.4244 203.7865,242.3014 203.9225,236.6094 C204.8435,197.8954 202.9945,187.0614 189.9225,150.6094 C183.8155,133.5794 182.5455,128.4734 170.9225,114.6094 C163.8405,106.1624 154.7955,98.3194 146.1425,91.7534 " fill="none" id="AMBER-to-OFF" style="stroke:#383838;stroke-width:1.0;"/><polygon fill="#383838" points="141.9365,88.6354,146.7836,97.2089,145.9529,91.6134,151.5484,90.7827,141.9365,88.6354" style="stroke:#383838;stroke-width:1.0;"/><text fill="#000000" font-family="monospace" font-size="13" font-weight="bold" lengthAdjust="spacing" textLength="24" x="204.9225" y="180.6792">OFF</text><!--MD5=[3aa0a78b82c48e3b3a18aa5e1069c2ca]
link GREEN to AMBER--><path d="M154.3815,200.6744 C158.3085,211.9274 163.6215,225.3064 169.9225,236.6094 C172.5195,241.2684 175.5895,245.9794 178.7825,250.4774 " fill="none" id="GREEN-to-AMBER" style="stroke:#383838;stroke-width:1.0;"/><polygon fill="#383838" points="181.7405,254.5414,179.6801,244.9105,178.7989,250.4983,173.2111,249.617,181.7405,254.5414" style="stroke:#383838;stroke-width:1.0;"/><text fill="#000000" font-family="monospace" font-size="13" font-weight="bold" lengthAdjust="spacing" textLength="32" x="170.9225" y="232.6792">STOP</text><!--MD5=[17b035c3f61fc7f4dae3e6e9b3e2de23]
link GREEN to OFF--><path d="M143.8495,150.3434 C142.1015,139.2904 139.5255,126.1324 135.9225,114.6094 C134.5545,110.2344 132.8465,105.7144 131.0215,101.3334 " fill="none" id="GREEN-to-OFF" style="stroke:#383838;stroke-width:1.0;"/><polygon fill="#383838" points="129.0035,96.6474,128.8881,106.4956,130.9805,101.2399,136.2361,103.3323,129.0035,96.6474" style="stroke:#383838;stroke-width:1.0;"/><text fill="#000000" font-family="monospace" font-size="13" font-weight="bold" lengthAdjust="spacing" textLength="24" x="141.9225" y="128.6792">OFF</text><!--MD5=[4f309bc4329a326daa57654c59172c72]
@startuml
skinparam monochrome true
skinparam StateFontName Helvetica
skinparam defaultFontName Monospaced
skinparam defaultFontStyle Bold
skinparam state {
    FontColor Black
    FontStyle Bold
}
state TrafficLightFSM {
OFF - -> GREEN : GO
OFF - -> RED : STOP
RED - -> GREEN : GO
RED - -> RED : STOP
RED - -> OFF : OFF
AMBER - -> RED : <<timeout = {amberTimeout}>>
AMBER - -> AMBER : STOP
AMBER - -> OFF : OFF
GREEN - -> AMBER : STOP
GREEN - -> OFF : OFF
}
@enduml

PlantUML version 1.2021.7(Sun May 23 14:40:07 CAT 2021)
(GPL source distribution)
Java Runtime: OpenJDK Runtime Environment
JVM: OpenJDK 64-Bit Server VM
Default Encoding: Cp1252
Language: en
Country: ZA
--></g></svg>