<?xml version="1.0" encoding="UTF-8" standalone="no"?><svg xmlns="http://www.w3.org/2000/svg" xmlns:xlink="http://www.w3.org/1999/xlink" contentScriptType="application/ecmascript" contentStyleType="text/css" height="591px" preserveAspectRatio="none" style="width:471px;height:591px;background:#FFFFFF;" version="1.1" viewBox="0 0 471 591" width="471px" zoomAndPan="magnify"><defs><filter height="300%" id="fdwvwu911by8t" width="300%" x="-1" y="-1"><feGaussianBlur result="blurOut" stdDeviation="2.0"/><feColorMatrix in="blurOut" result="blurOut2" type="matrix" values="0 0 0 0 0 0 0 0 0 0 0 0 0 0 0 0 0 0 .4 0"/><feOffset dx="4.0" dy="4.0" in="blurOut2" result="blurOut3"/><feBlend in="SourceGraphic" in2="blurOut3" mode="normal"/></filter></defs><g><rect fill="#ADD8E6" filter="url(#fdwvwu911by8t)" height="572.6094" rx="12.5" ry="12.5" style="stroke:#A80036;stroke-width:1.5;" width="452" x="7" y="7"/><rect fill="#FFFFFF" height="539" rx="12.5" ry="12.5" style="stroke:#FFFFFF;stroke-width:1.0;" width="446" x="10" y="37.6094"/><line style="stroke:#A80036;stroke-width:1.5;" x1="7" x2="459" y1="34.6094" y2="34.6094"/><text fill="#000000" font-family="Helvetica" font-size="14" lengthAdjust="spacing" textLength="100" x="183" y="26.5332">TrafficLightFSM</text><g id="TrafficLightFSM.RED"><rect fill="#ADD8E6" filter="url(#fdwvwu911by8t)" height="50" rx="12.5" ry="12.5" style="stroke:#A80036;stroke-width:1.5;" width="50" x="108" y="77.1094"/><line style="stroke:#A80036;stroke-width:1.5;" x1="108" x2="158" y1="104.7188" y2="104.7188"/><text fill="#000000" font-family="Helvetica" font-size="14" lengthAdjust="spacing" textLength="29" x="118.5" y="96.6426">RED</text></g><g id="TrafficLightFSM.GREEN"><rect fill="#ADD8E6" filter="url(#fdwvwu911by8t)" height="50" rx="12.5" ry="12.5" style="stroke:#A80036;stroke-width:1.5;" width="68" x="19" y="307.1094"/><line style="stroke:#A80036;stroke-width:1.5;" x1="19" x2="87" y1="334.7188" y2="334.7188"/><text fill="#000000" font-family="Helvetica" font-size="14" lengthAdjust="spacing" textLength="48" x="29" y="326.6426">GREEN</text></g><g id="TrafficLightFSM.AMBER"><rect fill="#ADD8E6" filter="url(#fdwvwu911by8t)" height="50" rx="12.5" ry="12.5" style="stroke:#A80036;stroke-width:1.5;" width="68" x="97" y="511.6094"/><line style="stroke:#A80036;stroke-width:1.5;" x1="97" x2="165" y1="539.2188" y2="539.2188"/><text fill="#000000" font-family="Helvetica" font-size="14" lengthAdjust="spacing" textLength="48" x="107" y="531.1426">AMBER</text></g><!--MD5=[f93beee92959f0017afd202ade278c45]
link RED to GREEN--><path d="M107.8515,120.5054 C91.0037,133.7334 70.1202,153.5544 60,176.6094 C42.1752,217.2164 44.4368,269.7364 48.286,301.8954 " fill="none" id="RED-to-GREEN" style="stroke:#A80036;stroke-width:1.0;"/><polygon fill="#A80036" points="48.9145,306.8764,51.7567,297.4465,48.2888,301.9157,43.8196,298.4477,48.9145,306.8764" style="stroke:#A80036;stroke-width:1.0;"/><text fill="#000000" font-family="monospace" font-size="13" lengthAdjust="spacing" textLength="16" x="61" y="190.6792">GO</text><text fill="#000000" font-family="monospace" font-size="13" lengthAdjust="spacing" textLength="80" x="61" y="207.6528">«action» {</text><text fill="#000000" font-family="monospace" font-size="13" lengthAdjust="spacing" textLength="128" x="61" y="224.6265">switchRed(false)</text><text fill="#000000" font-family="monospace" font-size="13" lengthAdjust="spacing" textLength="136" x="61" y="241.6001">switchGreen(true)</text><text fill="#000000" font-family="monospace" font-size="13" lengthAdjust="spacing" textLength="8" x="61" y="258.5737">}</text><!--MD5=[94abb4295b53f522f70cdaa97cba5858]
link RED to RED--><path d="M158.176,80.4444 C167.91,79.4814 176,86.7034 176,102.1094 C176,114.6274 170.659,121.7414 163.435,123.4524 " fill="none" id="RED-to-RED" style="stroke:#A80036;stroke-width:1.0;"/><polygon fill="#A80036" points="158.176,123.7744,167.4037,127.2167,163.1666,123.4687,166.9146,119.2317,158.176,123.7744" style="stroke:#A80036;stroke-width:1.0;"/><text fill="#000000" font-family="monospace" font-size="13" lengthAdjust="spacing" textLength="32" x="182" y="64.6792">STOP</text><text fill="#000000" font-family="monospace" font-size="13" lengthAdjust="spacing" textLength="80" x="182" y="81.6528">«action» {</text><text fill="#000000" font-family="monospace" font-size="13" lengthAdjust="spacing" textLength="144" x="182" y="98.6265">switchGreen(false)</text><text fill="#000000" font-family="monospace" font-size="13" lengthAdjust="spacing" textLength="144" x="182" y="115.6001">switchAmber(false)</text><text fill="#000000" font-family="monospace" font-size="13" lengthAdjust="spacing" textLength="120" x="182" y="132.5737">switchRed(true)</text><text fill="#000000" font-family="monospace" font-size="13" lengthAdjust="spacing" textLength="8" x="182" y="149.5474">}</text><!--MD5=[15a05beae452f3a43ad42f789ef833a9]
link AMBER to RED--><path d="M165.207,519.813 C177.91,512.0461 190.938,501.3553 198,487.6094 C261.161,364.6624 246.957,305.8714 198,176.6094 C190.665,157.2434 175.638,139.6954 161.879,126.6054 " fill="none" id="AMBER-to-RED" style="stroke:#A80036;stroke-width:1.0;"/><polygon fill="#A80036" points="158.039,123.0344,161.9047,132.0929,161.7001,126.4397,167.3533,126.2351,158.039,123.0344" style="stroke:#A80036;stroke-width:1.0;"/><text fill="#000000" font-family="monospace" font-size="13" lengthAdjust="spacing" textLength="208" x="241" y="294.6792">«timeout = {amberTimeout}»</text><text fill="#000000" font-family="monospace" font-size="13" lengthAdjust="spacing" textLength="80" x="241" y="311.6528">«action» {</text><text fill="#000000" font-family="monospace" font-size="13" lengthAdjust="spacing" textLength="144" x="241" y="328.6265">switchAmber(false)</text><text fill="#000000" font-family="monospace" font-size="13" lengthAdjust="spacing" textLength="120" x="241" y="345.6001">switchRed(true)</text><text fill="#000000" font-family="monospace" font-size="13" lengthAdjust="spacing" textLength="72" x="241" y="362.5737">stopped()</text><text fill="#000000" font-family="monospace" font-size="13" lengthAdjust="spacing" textLength="8" x="241" y="379.5474">}</text><!--MD5=[a77ae1ae3527a193b953c7703557f870]
link AMBER to AMBER--><path d="M165.008,519.3973 C175.127,519.9111 183,525.6485 183,536.6094 C183,545.6864 177.601,551.1812 169.998,553.0936 " fill="none" id="AMBER-to-AMBER" style="stroke:#A80036;stroke-width:1.0;"/><polygon fill="#A80036" points="165.008,553.8215,174.4917,556.4784,169.9555,553.0987,173.3352,548.5624,165.008,553.8215" style="stroke:#A80036;stroke-width:1.0;"/><text fill="#000000" font-family="monospace" font-size="13" lengthAdjust="spacing" textLength="32" x="189" y="524.6792">STOP</text><text fill="#000000" font-family="monospace" font-size="13" lengthAdjust="spacing" textLength="80" x="189" y="541.6528">«action» {</text><text fill="#000000" font-family="monospace" font-size="13" lengthAdjust="spacing" textLength="8" x="189" y="558.6265">}</text><!--MD5=[3aa0a78b82c48e3b3a18aa5e1069c2ca]
link GREEN to AMBER--><path d="M45.9191,357.1614 C37.9549,389.1944 28.9202,446.5804 52,487.6094 C60.6992,503.0741 76.6198,514.1341 91.9014,521.7094 " fill="none" id="GREEN-to-AMBER" style="stroke:#A80036;stroke-width:1.0;"/><polygon fill="#A80036" points="96.6148,523.9495,90.2031,516.4735,92.0989,521.8032,86.7691,523.699,96.6148,523.9495" style="stroke:#A80036;stroke-width:1.0;"/><text fill="#000000" font-family="monospace" font-size="13" lengthAdjust="spacing" textLength="32" x="53" y="415.6792">STOP</text><text fill="#000000" font-family="monospace" font-size="13" lengthAdjust="spacing" textLength="80" x="53" y="432.6528">«action» {</text><text fill="#000000" font-family="monospace" font-size="13" lengthAdjust="spacing" textLength="144" x="53" y="449.6265">switchGreen(false)</text><text fill="#000000" font-family="monospace" font-size="13" lengthAdjust="spacing" textLength="136" x="53" y="466.6001">switchAmber(true)</text><text fill="#000000" font-family="monospace" font-size="13" lengthAdjust="spacing" textLength="8" x="53" y="483.5737">}</text><!--MD5=[ea0218c4bb614c657bebe8d61922ac25]
@startuml
skinparam StateFontName Helvetica
skinparam defaultFontName Monospaced
skinparam state {
    BackgroundColor LightBlue
}
state TrafficLightFSM {
RED - -> GREEN : GO\l<<action>> {\lswitchRed(false)\lswitchGreen(true)\l}
RED - -> RED : STOP\l<<action>> {\lswitchGreen(false)\lswitchAmber(false)\lswitchRed(true)\l}
AMBER - -> RED : <<timeout = {amberTimeout}>>\l<<action>> {\lswitchAmber(false)\lswitchRed(true)\lstopped()\l}
AMBER - -> AMBER : STOP\l<<action>> {\l}
GREEN - -> AMBER : STOP\l<<action>> {\lswitchGreen(false)\lswitchAmber(true)\l}
}
@enduml

PlantUML version 1.2021.7(Sun May 23 14:40:07 CAT 2021)
(GPL source distribution)
Java Runtime: OpenJDK Runtime Environment
JVM: OpenJDK 64-Bit Server VM
Default Encoding: Cp1252
Language: en
Country: ZA
--></g></svg>