<?xml version="1.0" encoding="UTF-8" standalone="no"?><svg xmlns="http://www.w3.org/2000/svg" xmlns:xlink="http://www.w3.org/1999/xlink" contentScriptType="application/ecmascript" contentStyleType="text/css" height="794px" preserveAspectRatio="none" style="width:1239px;height:794px;background:#FFFFFF;" version="1.1" viewBox="0 0 1239 794" width="1239px" zoomAndPan="magnify"><defs><filter height="300%" id="fcjco8l0na4vf" width="300%" x="-1" y="-1"><feGaussianBlur result="blurOut" stdDeviation="2.0"/><feColorMatrix in="blurOut" result="blurOut2" type="matrix" values="0 0 0 0 0 0 0 0 0 0 0 0 0 0 0 0 0 0 .4 0"/><feOffset dx="4.0" dy="4.0" in="blurOut2" result="blurOut3"/><feBlend in="SourceGraphic" in2="blurOut3" mode="normal"/></filter></defs><g><rect fill="#F8F8F8" filter="url(#fcjco8l0na4vf)" height="775.6094" rx="12.5" ry="12.5" style="stroke:#383838;stroke-width:1.5;" width="1220.3072" x="7" y="7"/><rect fill="#FFFFFF" height="742" rx="12.5" ry="12.5" style="stroke:#FFFFFF;stroke-width:1.0;" width="1214.3072" x="10" y="37.6094"/><line style="stroke:#383838;stroke-width:1.5;" x1="7" x2="1227.3072" y1="34.6094" y2="34.6094"/><text fill="#000000" font-family="Helvetica" font-size="14" font-weight="bold" lengthAdjust="spacing" textLength="160" x="537.1536" y="26.5332">TrafficIntersectionFSM</text><g id="TrafficIntersectionFSM.STOPPED"><rect fill="#F8F8F8" filter="url(#fcjco8l0na4vf)" height="50" rx="12.5" ry="12.5" style="stroke:#383838;stroke-width:1.5;" width="85" x="651.8072" y="51.6094"/><line style="stroke:#383838;stroke-width:1.5;" x1="651.8072" x2="736.8072" y1="79.2188" y2="79.2188"/><text fill="#000000" font-family="Helvetica" font-size="14" font-weight="bold" lengthAdjust="spacing" textLength="65" x="661.8072" y="71.1426">STOPPED</text></g><g id="TrafficIntersectionFSM.GOING"><rect fill="#F8F8F8" filter="url(#fcjco8l0na4vf)" height="50" rx="12.5" ry="12.5" style="stroke:#383838;stroke-width:1.5;" width="67" x="311.8072" y="212.6094"/><line style="stroke:#383838;stroke-width:1.5;" x1="311.8072" x2="378.8072" y1="240.2188" y2="240.2188"/><text fill="#000000" font-family="Helvetica" font-size="14" font-weight="bold" lengthAdjust="spacing" textLength="47" x="321.8072" y="232.1426">GOING</text></g><g id="TrafficIntersectionFSM.STOPPING"><rect fill="#F8F8F8" filter="url(#fcjco8l0na4vf)" height="50" rx="12.5" ry="12.5" style="stroke:#383838;stroke-width:1.5;" width="91" x="260.8072" y="385.6094"/><line style="stroke:#383838;stroke-width:1.5;" x1="260.8072" x2="351.8072" y1="413.2188" y2="413.2188"/><text fill="#000000" font-family="Helvetica" font-size="14" font-weight="bold" lengthAdjust="spacing" textLength="71" x="270.8072" y="405.1426">STOPPING</text></g><g id="TrafficIntersectionFSM.WAITING_STOPPED"><rect fill="#F8F8F8" filter="url(#fcjco8l0na4vf)" height="50" rx="12.5" ry="12.5" style="stroke:#383838;stroke-width:1.5;" width="152" x="295.3072" y="714.6094"/><line style="stroke:#383838;stroke-width:1.5;" x1="295.3072" x2="447.3072" y1="742.2188" y2="742.2188"/><text fill="#000000" font-family="Helvetica" font-size="14" font-weight="bold" lengthAdjust="spacing" textLength="132" x="305.3072" y="734.1426">WAITING_STOPPED</text></g><g id="TrafficIntersectionFSM.WAITING"><rect fill="#F8F8F8" filter="url(#fcjco8l0na4vf)" height="50" rx="12.5" ry="12.5" style="stroke:#383838;stroke-width:1.5;" width="79" x="494.8072" y="564.6094"/><line style="stroke:#383838;stroke-width:1.5;" x1="494.8072" x2="573.8072" y1="592.2188" y2="592.2188"/><text fill="#000000" font-family="Helvetica" font-size="14" font-weight="bold" lengthAdjust="spacing" textLength="59" x="504.8072" y="584.1426">WAITING</text></g><!--MD5=[077e120bfbc30b5bd4099620b18cdaed]
link STOPPED to GOING--><path d="M651.5132,97.1064 C582.9012,128.3644 449.3412,189.2124 383.6582,219.1374 " fill="none" id="STOPPED-to-GOING" style="stroke:#383838;stroke-width:1.0;"/><polygon fill="#383838" points="379.0482,221.2374,388.8966,221.1437,383.5977,219.1633,385.5781,213.8644,379.0482,221.2374" style="stroke:#383838;stroke-width:1.0;"/><text fill="#000000" font-family="monospace" font-size="13" font-weight="bold" lengthAdjust="spacing" textLength="80" x="583.3072" y="139.6792">START -&gt; {</text><text fill="#000000" font-family="monospace" font-size="13" font-weight="bold" lengthAdjust="spacing" textLength="224" x="599.3072" y="156.6528">logger.info{"STOPPED:START"}</text><text fill="#000000" font-family="monospace" font-size="13" font-weight="bold" lengthAdjust="spacing" textLength="56" x="599.3072" y="173.6265">start()</text><text fill="#000000" font-family="monospace" font-size="13" font-weight="bold" lengthAdjust="spacing" textLength="8" x="583.3072" y="190.6001">}</text><!--MD5=[75a204fa9372a53b122c3788c8835dae]
link STOPPED to STOPPED--><path d="M736.9902,61.5054 C747.2242,62.6864 754.8072,67.7204 754.8072,76.6094 C754.8072,83.9704 749.6072,88.6884 742.0072,90.7634 " fill="none" id="STOPPED-to-STOPPED" style="stroke:#383838;stroke-width:1.0;"/><polygon fill="#383838" points="736.9902,91.7134,746.5778,93.9669,741.9027,90.782,745.0876,86.1069,736.9902,91.7134" style="stroke:#383838;stroke-width:1.0;"/><text fill="#000000" font-family="monospace" font-size="13" font-weight="bold" lengthAdjust="spacing" textLength="96" x="760.8072" y="64.6792">STOPPED -&gt; {</text><text fill="#000000" font-family="monospace" font-size="13" font-weight="bold" lengthAdjust="spacing" textLength="240" x="776.8072" y="81.6528">logger.info{"STOPPED:STOPPED"}</text><text fill="#000000" font-family="monospace" font-size="13" font-weight="bold" lengthAdjust="spacing" textLength="8" x="760.8072" y="98.6265">}</text><!--MD5=[2e57a40ebf806e158066d44368eeb506]
link GOING to STOPPING--><path d="M341.0592,262.9834 C336.9872,285.5554 330.4232,320.0014 323.3072,349.6094 C320.8722,359.7394 317.8662,370.7314 315.0622,380.5054 " fill="none" id="GOING-to-STOPPING" style="stroke:#383838;stroke-width:1.0;"/><polygon fill="#383838" points="313.6182,385.4954,319.9625,377.9622,315.0082,380.6925,312.2779,375.7381,313.6182,385.4954" style="stroke:#383838;stroke-width:1.0;"/><text fill="#000000" font-family="monospace" font-size="13" font-weight="bold" lengthAdjust="spacing" textLength="224" x="339.3072" y="294.6792">«timeout = {cycleTime}» -&gt; {</text><text fill="#000000" font-family="monospace" font-size="13" font-weight="bold" lengthAdjust="spacing" textLength="224" x="355.3072" y="311.6528">logger.info{"GOING:timeout"}</text><text fill="#000000" font-family="monospace" font-size="13" font-weight="bold" lengthAdjust="spacing" textLength="48" x="355.3072" y="328.6265">stop()</text><text fill="#000000" font-family="monospace" font-size="13" font-weight="bold" lengthAdjust="spacing" textLength="8" x="339.3072" y="345.6001">}</text><!--MD5=[2e57a40ebf806e158066d44368eeb506]
link GOING to STOPPING--><path d="M311.5102,238.8744 C247.8542,240.1674 113.9857,246.9264 85.3072,280.6094 C65.4267,303.9594 66.6787,325.2494 85.3072,349.6094 C105.8783,376.5104 196.9382,394.1784 255.5622,402.9894 " fill="none" id="GOING-to-STOPPING-1" style="stroke:#383838;stroke-width:1.0;"/><polygon fill="#383838" points="260.7792,403.7624,252.4642,398.484,255.8334,403.0281,251.2893,406.3973,260.7792,403.7624" style="stroke:#383838;stroke-width:1.0;"/><text fill="#000000" font-family="monospace" font-size="13" font-weight="bold" lengthAdjust="spacing" textLength="88" x="86.3072" y="294.6792">SWITCH -&gt; {</text><text fill="#000000" font-family="monospace" font-size="13" font-weight="bold" lengthAdjust="spacing" textLength="216" x="102.3072" y="311.6528">logger.info{"GOING:SWITCH"}</text><text fill="#000000" font-family="monospace" font-size="13" font-weight="bold" lengthAdjust="spacing" textLength="48" x="102.3072" y="328.6265">stop()</text><text fill="#000000" font-family="monospace" font-size="13" font-weight="bold" lengthAdjust="spacing" textLength="8" x="86.3072" y="345.6001">}</text><!--MD5=[98250bfde97d800a7ce46aa557768b1d]
link GOING to WAITING_STOPPED--><path d="M311.7772,238.5154 C245.2342,239.1174 100.2252,244.6304 69.3072,280.6094 C40.02,314.6904 18,429.3304 81.3072,540.6094 C129.8809,625.9904 232.1982,682.3327 301.3612,712.3653 " fill="none" id="GOING-to-WAITING_STOPPED" style="stroke:#383838;stroke-width:1.0;"/><polygon fill="#383838" points="306.2822,714.4823,299.5952,707.2515,301.6891,712.5066,296.4341,714.6005,306.2822,714.4823" style="stroke:#383838;stroke-width:1.0;"/><text fill="#000000" font-family="monospace" font-size="13" font-weight="bold" lengthAdjust="spacing" textLength="72" x="82.3072" y="485.6792">STOP -&gt; {</text><text fill="#000000" font-family="monospace" font-size="13" font-weight="bold" lengthAdjust="spacing" textLength="200" x="98.3072" y="502.6528">logger.info{"GOING:STOP"}</text><text fill="#000000" font-family="monospace" font-size="13" font-weight="bold" lengthAdjust="spacing" textLength="48" x="98.3072" y="519.6265">stop()</text><text fill="#000000" font-family="monospace" font-size="13" font-weight="bold" lengthAdjust="spacing" textLength="8" x="82.3072" y="536.6001">}</text><!--MD5=[efa6eca18e90a7ace7d508dcd6aec675]
link STOPPING to WAITING--><path d="M315.9912,435.7914 C329.1422,465.3714 355.5402,514.6964 394.3072,540.6094 C426.7722,562.3104 443.7152,544.9734 480.3072,558.6094 C483.4072,559.7644 486.5432,561.0764 489.6632,562.4914 " fill="none" id="STOPPING-to-WAITING" style="stroke:#383838;stroke-width:1.0;"/><polygon fill="#383838" points="494.5442,564.7914,488.1053,557.3388,490.0205,562.6616,484.6977,564.5768,494.5442,564.7914" style="stroke:#383838;stroke-width:1.0;"/><text fill="#000000" font-family="monospace" font-size="13" font-weight="bold" lengthAdjust="spacing" textLength="96" x="395.3072" y="494.1792">STOPPED -&gt; {</text><text fill="#000000" font-family="monospace" font-size="13" font-weight="bold" lengthAdjust="spacing" textLength="176" x="411.3072" y="511.1528">logger.info{"STOPPED"}</text><text fill="#000000" font-family="monospace" font-size="13" font-weight="bold" lengthAdjust="spacing" textLength="8" x="395.3072" y="528.1265">}</text><!--MD5=[fe08ae31c024323f5aea0bb0522b7d22]
link STOPPING to STOPPING--><path d="M351.9722,393.4144 C362.2732,394.9634 369.8072,400.6954 369.8072,410.6094 C369.8072,418.8194 364.6402,424.1614 357.0142,426.6344 " fill="none" id="STOPPING-to-STOPPING" style="stroke:#383838;stroke-width:1.0;"/><polygon fill="#383838" points="351.9722,427.8044,361.6433,429.6672,356.8429,426.6745,359.8356,421.8741,351.9722,427.8044" style="stroke:#383838;stroke-width:1.0;"/><text fill="#000000" font-family="monospace" font-size="13" font-weight="bold" lengthAdjust="spacing" textLength="88" x="375.8072" y="398.6792">SWITCH -&gt; {</text><text fill="#000000" font-family="monospace" font-size="13" font-weight="bold" lengthAdjust="spacing" textLength="168" x="391.8072" y="415.6528">logger.info{"SWITCH"}</text><text fill="#000000" font-family="monospace" font-size="13" font-weight="bold" lengthAdjust="spacing" textLength="8" x="375.8072" y="432.6265">}</text><!--MD5=[e60b05149855d5aa632bd54b0b540644]
link STOPPING to WAITING_STOPPED--><path d="M304.2682,435.8724 C301.6372,475.2894 299.1362,555.3954 315.3072,620.6094 C323.2892,652.7984 340.4282,686.7206 353.6562,709.8903 " fill="none" id="STOPPING-to-WAITING_STOPPED" style="stroke:#383838;stroke-width:1.0;"/><polygon fill="#383838" points="356.2452,714.3772,355.2115,704.5827,353.7462,710.0465,348.2824,708.5811,356.2452,714.3772" style="stroke:#383838;stroke-width:1.0;"/><text fill="#000000" font-family="monospace" font-size="13" font-weight="bold" lengthAdjust="spacing" textLength="72" x="316.3072" y="577.6792">STOP -&gt; {</text><text fill="#000000" font-family="monospace" font-size="13" font-weight="bold" lengthAdjust="spacing" textLength="152" x="332.3072" y="594.6528">logger.info{"STOP"}</text><text fill="#000000" font-family="monospace" font-size="13" font-weight="bold" lengthAdjust="spacing" textLength="8" x="316.3072" y="611.6265">}</text><!--MD5=[15d90bb837becb4119098d374e4b4cc7]
link WAITING to GOING--><path d="M570.2322,564.4654 C577.5512,557.6804 584.2482,549.6494 588.3072,540.6094 C611.9792,487.8964 621.9242,324.4724 584.3072,280.6094 C558.8982,250.9824 445.0652,242.2404 384.1192,239.6714 " fill="none" id="WAITING-to-GOING" style="stroke:#383838;stroke-width:1.0;"/><polygon fill="#383838" points="379.1082,239.4684,387.9385,243.8302,384.1041,239.6712,388.2631,235.8368,379.1082,239.4684" style="stroke:#383838;stroke-width:1.0;"/><text fill="#000000" font-family="monospace" font-size="13" font-weight="bold" lengthAdjust="spacing" textLength="256" x="611.3072" y="381.6792">«timeout = {cycleWaitTime}» -&gt; {</text><text fill="#000000" font-family="monospace" font-size="13" font-weight="bold" lengthAdjust="spacing" textLength="240" x="627.3072" y="398.6528">logger.info{"WAITING:timeout"}</text><text fill="#000000" font-family="monospace" font-size="13" font-weight="bold" lengthAdjust="spacing" textLength="48" x="627.3072" y="415.6265">next()</text><text fill="#000000" font-family="monospace" font-size="13" font-weight="bold" lengthAdjust="spacing" textLength="56" x="627.3072" y="432.6001">start()</text><text fill="#000000" font-family="monospace" font-size="13" font-weight="bold" lengthAdjust="spacing" textLength="8" x="611.3072" y="449.5737">}</text><!--MD5=[74587d36db9700cd1fbb3ca4f89842b2]
link WAITING to WAITING--><path d="M573.8132,575.8774 C584.0712,576.7214 591.8072,581.2984 591.8072,589.6094 C591.8072,596.4914 586.5022,600.8134 578.8522,602.5754 " fill="none" id="WAITING-to-WAITING" style="stroke:#383838;stroke-width:1.0;"/><polygon fill="#383838" points="573.8132,603.3414,583.312,605.9437,578.7564,602.5901,582.11,598.0345,573.8132,603.3414" style="stroke:#383838;stroke-width:1.0;"/><text fill="#000000" font-family="monospace" font-size="13" font-weight="bold" lengthAdjust="spacing" textLength="88" x="597.8072" y="577.6792">SWITCH -&gt; {</text><text fill="#000000" font-family="monospace" font-size="13" font-weight="bold" lengthAdjust="spacing" textLength="232" x="613.8072" y="594.6528">logger.info{"WAITING:SWITCH"}</text><text fill="#000000" font-family="monospace" font-size="13" font-weight="bold" lengthAdjust="spacing" textLength="8" x="597.8072" y="611.6265">}</text><!--MD5=[e2d9a844f47169489d4c1891b9c3d62f]
link WAITING to WAITING_STOPPED--><path d="M507.7552,614.7174 C478.7472,641.0564 432.3542,683.18 401.8562,710.8717 " fill="none" id="WAITING-to-WAITING_STOPPED" style="stroke:#383838;stroke-width:1.0;"/><polygon fill="#383838" points="397.8472,714.5116,407.1998,711.4246,401.5495,711.1511,401.8231,705.5009,397.8472,714.5116" style="stroke:#383838;stroke-width:1.0;"/><text fill="#000000" font-family="monospace" font-size="13" font-weight="bold" lengthAdjust="spacing" textLength="72" x="478.3072" y="652.6792">STOP -&gt; {</text><text fill="#000000" font-family="monospace" font-size="13" font-weight="bold" lengthAdjust="spacing" textLength="216" x="494.3072" y="669.6528">logger.info{"WAITING:STOP"}</text><text fill="#000000" font-family="monospace" font-size="13" font-weight="bold" lengthAdjust="spacing" textLength="8" x="478.3072" y="686.6265">}</text><!--MD5=[6a3673ff49521e1ff5d6d247a82b4be7]
link WAITING_STOPPED to STOPPED--><path d="M447.3662,733.0584 C592.8642,720.3381 896.3072,682.7627 896.3072,590.6094 C896.3072,236.6094 896.3072,236.6094 896.3072,236.6094 C896.3072,178.7544 873.2002,162.1034 828.3072,125.6094 C803.4862,105.4324 769.5062,93.3874 741.9762,86.4104 " fill="none" id="WAITING_STOPPED-to-STOPPED" style="stroke:#383838;stroke-width:1.0;"/><polygon fill="#383838" points="736.9142,85.1654,744.698,91.1997,741.7694,86.3599,746.6092,83.4313,736.9142,85.1654" style="stroke:#383838;stroke-width:1.0;"/><text fill="#000000" font-family="monospace" font-size="13" font-weight="bold" lengthAdjust="spacing" textLength="272" x="897.3072" y="390.1792">«timeout = {cycleWaitTime/2}» -&gt; {</text><text fill="#000000" font-family="monospace" font-size="13" font-weight="bold" lengthAdjust="spacing" textLength="304" x="913.3072" y="407.1528">logger.info{"WAITING_STOPPED:timeout"}</text><text fill="#000000" font-family="monospace" font-size="13" font-weight="bold" lengthAdjust="spacing" textLength="40" x="913.3072" y="424.1265">off()</text><text fill="#000000" font-family="monospace" font-size="13" font-weight="bold" lengthAdjust="spacing" textLength="8" x="897.3072" y="441.1001">}</text><!--MD5=[ab4f29132115821a7d8cf2982913147a]
link WAITING_STOPPED to WAITING_STOPPED--><path d="M447.6542,727.2283 C458.2352,729.2675 465.3072,733.3946 465.3072,739.6094 C465.3072,744.7561 460.4572,748.4709 452.7812,750.754 " fill="none" id="WAITING_STOPPED-to-WAITING_STOPPED" style="stroke:#383838;stroke-width:1.0;"/><polygon fill="#383838" points="447.6542,751.9905,457.3414,753.7678,452.5147,750.8176,455.4648,745.991,447.6542,751.9905" style="stroke:#383838;stroke-width:1.0;"/><text fill="#000000" font-family="monospace" font-size="13" font-weight="bold" lengthAdjust="spacing" textLength="96" x="471.3072" y="727.6792">STOPPED -&gt; {</text><text fill="#000000" font-family="monospace" font-size="13" font-weight="bold" lengthAdjust="spacing" textLength="360" x="487.3072" y="744.6528">logger.info{"WAITING_STOPPED:STOPPED:ignore"}</text><text fill="#000000" font-family="monospace" font-size="13" font-weight="bold" lengthAdjust="spacing" textLength="8" x="471.3072" y="761.6265">}</text><!--MD5=[75cde683ad9b31d5af772d771695c40d]
@startuml
skinparam monochrome true
skinparam StateFontName Helvetica
skinparam defaultFontName Monospaced
skinparam defaultFontStyle Bold
skinparam state {
    FontColor Black
    FontStyle Bold
}
state TrafficIntersectionFSM {
STOPPED - -> GOING : START -> {\l  logger.info{"STOPPED:START"}\l  start()\l}
STOPPED - -> STOPPED : STOPPED -> {\l  logger.info{"STOPPED:STOPPED"}\l}
GOING - -> STOPPING : <<timeout = {cycleTime}>> -> {\l  logger.info{"GOING:timeout"}\l  stop()\l}
GOING - -> STOPPING : SWITCH -> {\l  logger.info{"GOING:SWITCH"}\l  stop()\l}
GOING - -> WAITING_STOPPED : STOP -> {\l  logger.info{"GOING:STOP"}\l  stop()\l}
STOPPING - -> WAITING : STOPPED -> {\l  logger.info{"STOPPED"}\l}
STOPPING - -> STOPPING : SWITCH -> {\l  logger.info{"SWITCH"}\l}
STOPPING - -> WAITING_STOPPED : STOP -> {\l  logger.info{"STOP"}\l}
WAITING - -> GOING : <<timeout = {cycleWaitTime}>> -> {\l  logger.info{"WAITING:timeout"}\l  next()\l  start()\l}
WAITING - -> WAITING : SWITCH -> {\l  logger.info{"WAITING:SWITCH"}\l}
WAITING - -> WAITING_STOPPED : STOP -> {\l  logger.info{"WAITING:STOP"}\l}
WAITING_STOPPED - -> STOPPED : <<timeout = {cycleWaitTime/2}>> -> {\l  logger.info{"WAITING_STOPPED:timeout"}\l  off()\l}
WAITING_STOPPED - -> WAITING_STOPPED : STOPPED -> {\l  logger.info{"WAITING_STOPPED:STOPPED:ignore"}\l}
}
@enduml

PlantUML version 1.2021.7(Sun May 23 14:40:07 CAT 2021)
(GPL source distribution)
Java Runtime: OpenJDK Runtime Environment
JVM: OpenJDK 64-Bit Server VM
Default Encoding: Cp1252
Language: en
Country: ZA
--></g></svg>