<?xml version="1.0" encoding="UTF-8" standalone="no"?><svg xmlns="http://www.w3.org/2000/svg" xmlns:xlink="http://www.w3.org/1999/xlink" contentScriptType="application/ecmascript" contentStyleType="text/css" height="646px" preserveAspectRatio="none" style="width:587px;height:646px;background:#FFFFFF;" version="1.1" viewBox="0 0 587 646" width="587px" zoomAndPan="magnify"><defs><filter height="300%" id="f17ba3su7um5vr" width="300%" x="-1" y="-1"><feGaussianBlur result="blurOut" stdDeviation="2.0"/><feColorMatrix in="blurOut" result="blurOut2" type="matrix" values="0 0 0 0 0 0 0 0 0 0 0 0 0 0 0 0 0 0 .4 0"/><feOffset dx="4.0" dy="4.0" in="blurOut2" result="blurOut3"/><feBlend in="SourceGraphic" in2="blurOut3" mode="normal"/></filter></defs><g><rect fill="#ADD8E6" filter="url(#f17ba3su7um5vr)" height="627.6094" rx="12.5" ry="12.5" style="stroke:#A80036;stroke-width:1.5;" width="568.403" x="7" y="7"/><rect fill="#FFFFFF" height="594" rx="12.5" ry="12.5" style="stroke:#FFFFFF;stroke-width:1.0;" width="562.403" x="10" y="37.6094"/><line style="stroke:#A80036;stroke-width:1.5;" x1="7" x2="575.403" y1="34.6094" y2="34.6094"/><text fill="#000000" font-family="Helvetica" font-size="14" lengthAdjust="spacing" textLength="142" x="220.2015" y="26.5332">TrafficIntersectionFSM</text><g id="TrafficIntersectionFSM.STOPPED"><rect fill="#ADD8E6" filter="url(#f17ba3su7um5vr)" height="50" rx="12.5" ry="12.5" style="stroke:#A80036;stroke-width:1.5;" width="86" x="297.403" y="51.6094"/><line style="stroke:#A80036;stroke-width:1.5;" x1="297.403" x2="383.403" y1="79.2188" y2="79.2188"/><text fill="#000000" font-family="Helvetica" font-size="14" lengthAdjust="spacing" textLength="66" x="307.403" y="71.1426">STOPPED</text></g><g id="TrafficIntersectionFSM.GOING"><rect fill="#ADD8E6" filter="url(#f17ba3su7um5vr)" height="50" rx="12.5" ry="12.5" style="stroke:#A80036;stroke-width:1.5;" width="65" x="154.903" y="222.1094"/><line style="stroke:#A80036;stroke-width:1.5;" x1="154.903" x2="219.903" y1="249.7188" y2="249.7188"/><text fill="#000000" font-family="Helvetica" font-size="14" lengthAdjust="spacing" textLength="45" x="164.903" y="241.6426">GOING</text></g><g id="TrafficIntersectionFSM.STOPPING"><rect fill="#ADD8E6" filter="url(#f17ba3su7um5vr)" height="50" rx="12.5" ry="12.5" style="stroke:#A80036;stroke-width:1.5;" width="90" x="286.403" y="404.6094"/><line style="stroke:#A80036;stroke-width:1.5;" x1="286.403" x2="376.403" y1="432.2188" y2="432.2188"/><text fill="#000000" font-family="Helvetica" font-size="14" lengthAdjust="spacing" textLength="70" x="296.403" y="424.1426">STOPPING</text></g><g id="TrafficIntersectionFSM.WAITING"><rect fill="#ADD8E6" filter="url(#f17ba3su7um5vr)" height="50" rx="12.5" ry="12.5" style="stroke:#A80036;stroke-width:1.5;" width="77" x="274.903" y="566.6094"/><line style="stroke:#A80036;stroke-width:1.5;" x1="274.903" x2="351.903" y1="594.2188" y2="594.2188"/><text fill="#000000" font-family="Helvetica" font-size="14" lengthAdjust="spacing" textLength="57" x="284.903" y="586.1426">WAITING</text></g><!--MD5=[077e120bfbc30b5bd4099620b18cdaed]
link STOPPED to GOING--><path d="M297.204,78.2524 C261.664,81.3454 213.244,92.0074 188.403,125.6094 C169.165,151.6324 172.811,190.2034 178.71,216.6564 " fill="none" id="STOPPED-to-GOING" style="stroke:#A80036;stroke-width:1.0;"/><polygon fill="#A80036" points="179.913,221.7784,181.7471,212.1018,178.7687,216.9111,173.9594,213.9327,179.913,221.7784" style="stroke:#A80036;stroke-width:1.0;"/><text fill="#000000" font-family="monospace" font-size="13" lengthAdjust="spacing" textLength="40" x="189.403" y="139.6792">START</text><text fill="#000000" font-family="monospace" font-size="13" lengthAdjust="spacing" textLength="80" x="189.403" y="156.6528">«action» {</text><text fill="#000000" font-family="monospace" font-size="13" lengthAdjust="spacing" textLength="56" x="189.403" y="173.6265">start()</text><text fill="#000000" font-family="monospace" font-size="13" lengthAdjust="spacing" textLength="8" x="189.403" y="190.6001">}</text><!--MD5=[75a204fa9372a53b122c3788c8835dae]
link STOPPED to STOPPED--><path d="M383.439,61.5054 C393.757,62.6864 401.403,67.7204 401.403,76.6094 C401.403,83.9704 396.16,88.6884 388.497,90.7634 " fill="none" id="STOPPED-to-STOPPED" style="stroke:#A80036;stroke-width:1.0;"/><polygon fill="#A80036" points="383.439,91.7134,393.0228,93.9831,388.3531,90.7903,391.5458,86.1206,383.439,91.7134" style="stroke:#A80036;stroke-width:1.0;"/><text fill="#000000" font-family="monospace" font-size="13" lengthAdjust="spacing" textLength="56" x="407.403" y="64.6792">STOPPED</text><text fill="#000000" font-family="monospace" font-size="13" lengthAdjust="spacing" textLength="80" x="407.403" y="81.6528">«action» {</text><text fill="#000000" font-family="monospace" font-size="13" lengthAdjust="spacing" textLength="8" x="407.403" y="98.6265">}</text><!--MD5=[2e57a40ebf806e158066d44368eeb506]
link GOING to STOPPING--><path d="M154.698,254.8514 C130.663,261.7024 99.6435,274.9494 84.403,299.6094 C68.2806,325.6964 63.7776,345.9154 84.403,368.6094 C112.6298,399.6674 233.081,371.9404 272.403,386.6094 C281.746,390.0944 290.963,395.4524 299.235,401.1864 " fill="none" id="GOING-to-STOPPING" style="stroke:#A80036;stroke-width:1.0;"/><polygon fill="#A80036" points="303.729,404.4014,298.7371,395.9113,299.6627,401.4919,294.082,402.4175,303.729,404.4014" style="stroke:#A80036;stroke-width:1.0;"/><text fill="#000000" font-family="monospace" font-size="13" lengthAdjust="spacing" textLength="184" x="85.403" y="313.6792">«timeout = {cycleTime}»</text><text fill="#000000" font-family="monospace" font-size="13" lengthAdjust="spacing" textLength="80" x="85.403" y="330.6528">«action» {</text><text fill="#000000" font-family="monospace" font-size="13" lengthAdjust="spacing" textLength="48" x="85.403" y="347.6265">stop()</text><text fill="#000000" font-family="monospace" font-size="13" lengthAdjust="spacing" textLength="8" x="85.403" y="364.6001">}</text><!--MD5=[2e57a40ebf806e158066d44368eeb506]
link GOING to STOPPING--><path d="M220.039,261.6974 C237.166,270.3074 257.263,282.9754 270.403,299.6094 C290.441,324.9744 279.542,339.4064 293.403,368.6094 C298.492,379.3314 305.127,390.4734 311.425,400.2034 " fill="none" id="GOING-to-STOPPING-1" style="stroke:#A80036;stroke-width:1.0;"/><polygon fill="#A80036" points="314.288,404.5684,312.6962,394.849,311.5456,400.3876,306.007,399.2369,314.288,404.5684" style="stroke:#A80036;stroke-width:1.0;"/><text fill="#000000" font-family="monospace" font-size="13" lengthAdjust="spacing" textLength="48" x="294.403" y="313.6792">SWITCH</text><text fill="#000000" font-family="monospace" font-size="13" lengthAdjust="spacing" textLength="80" x="294.403" y="330.6528">«action» {</text><text fill="#000000" font-family="monospace" font-size="13" lengthAdjust="spacing" textLength="48" x="294.403" y="347.6265">stop()</text><text fill="#000000" font-family="monospace" font-size="13" lengthAdjust="spacing" textLength="8" x="294.403" y="364.6001">}</text><!--MD5=[044cfbee0f563860e65db0afcbe8b084]
link GOING to STOPPED--><path d="M220.039,232.5214 C237.166,223.9114 257.263,211.2434 270.403,194.6094 C290.441,169.2444 276.553,153.1964 293.403,125.6094 C297.733,118.5204 303.291,111.6614 309.059,105.4524 " fill="none" id="GOING-to-STOPPED" style="stroke:#A80036;stroke-width:1.0;"/><polygon fill="#A80036" points="312.668,101.6734,303.5587,105.4178,309.2141,105.2887,309.3432,110.9441,312.668,101.6734" style="stroke:#A80036;stroke-width:1.0;"/><text fill="#000000" font-family="monospace" font-size="13" lengthAdjust="spacing" textLength="32" x="294.403" y="139.6792">STOP</text><text fill="#000000" font-family="monospace" font-size="13" lengthAdjust="spacing" textLength="80" x="294.403" y="156.6528">«action» {</text><text fill="#000000" font-family="monospace" font-size="13" lengthAdjust="spacing" textLength="48" x="294.403" y="173.6265">stop()</text><text fill="#000000" font-family="monospace" font-size="13" lengthAdjust="spacing" textLength="8" x="294.403" y="190.6001">}</text><!--MD5=[efa6eca18e90a7ace7d508dcd6aec675]
link STOPPING to WAITING--><path d="M292.367,454.7854 C280.477,464.3414 268.853,476.4524 262.403,490.6094 C252.821,511.6404 253.236,521.3944 262.403,542.6094 C265.598,550.004 270.555,556.786 276.148,562.7771 " fill="none" id="STOPPING-to-WAITING" style="stroke:#A80036;stroke-width:1.0;"/><polygon fill="#A80036" points="279.702,566.4037,276.2578,557.1767,276.2017,562.8332,270.5451,562.7771,279.702,566.4037" style="stroke:#A80036;stroke-width:1.0;"/><text fill="#000000" font-family="monospace" font-size="13" lengthAdjust="spacing" textLength="56" x="263.403" y="504.6792">STOPPED</text><text fill="#000000" font-family="monospace" font-size="13" lengthAdjust="spacing" textLength="80" x="263.403" y="521.6528">«action» {</text><text fill="#000000" font-family="monospace" font-size="13" lengthAdjust="spacing" textLength="8" x="263.403" y="538.6265">}</text><!--MD5=[efa6eca18e90a7ace7d508dcd6aec675]
link STOPPING to WAITING--><path d="M339.631,454.6784 C346.236,477.6854 353.094,513.1314 344.403,542.6094 C342.436,549.2819 339.22,555.9006 335.588,561.9942 " fill="none" id="STOPPING-to-WAITING-1" style="stroke:#A80036;stroke-width:1.0;"/><polygon fill="#A80036" points="332.742,566.5439,340.9059,561.0347,335.3935,562.3048,334.1234,556.7924,332.742,566.5439" style="stroke:#A80036;stroke-width:1.0;"/><text fill="#000000" font-family="monospace" font-size="13" lengthAdjust="spacing" textLength="48" x="350.403" y="504.6792">SWITCH</text><text fill="#000000" font-family="monospace" font-size="13" lengthAdjust="spacing" textLength="80" x="350.403" y="521.6528">«action» {</text><text fill="#000000" font-family="monospace" font-size="13" lengthAdjust="spacing" textLength="8" x="350.403" y="538.6265">}</text><!--MD5=[97554414fd517474d5fd5a9e9f8c9668]
link STOPPING to STOPPED--><path d="M354.631,404.3544 C362.867,394.1454 371.143,381.6224 375.403,368.6094 C409.004,265.9694 408.865,228.2944 375.403,125.6094 C373.17,118.7574 369.549,112.0704 365.463,105.9674 " fill="none" id="STOPPING-to-STOPPED" style="stroke:#A80036;stroke-width:1.0;"/><polygon fill="#A80036" points="362.572,101.8414,364.4603,111.5075,365.441,105.9363,371.0122,106.9171,362.572,101.8414" style="stroke:#A80036;stroke-width:1.0;"/><text fill="#000000" font-family="monospace" font-size="13" lengthAdjust="spacing" textLength="32" x="402.403" y="226.6792">STOP</text><text fill="#000000" font-family="monospace" font-size="13" lengthAdjust="spacing" textLength="80" x="402.403" y="243.6528">«action» {</text><text fill="#000000" font-family="monospace" font-size="13" lengthAdjust="spacing" textLength="48" x="402.403" y="260.6265">stop()</text><text fill="#000000" font-family="monospace" font-size="13" lengthAdjust="spacing" textLength="8" x="402.403" y="277.6001">}</text><!--MD5=[15d90bb837becb4119098d374e4b4cc7]
link WAITING to GOING--><path d="M274.897,585.5949 C216.494,575.6876 107.2661,547.621 59.403,472.6094 C18,407.7224 22.1462,361.8694 67.403,299.6094 C86.6026,273.1964 122.1847,260.2024 149.637,253.8884 " fill="none" id="WAITING-to-GOING" style="stroke:#A80036;stroke-width:1.0;"/><polygon fill="#A80036" points="154.662,252.7854,145.0138,250.8073,149.7782,253.857,146.7285,258.6214,154.662,252.7854" style="stroke:#A80036;stroke-width:1.0;"/><text fill="#000000" font-family="monospace" font-size="13" lengthAdjust="spacing" textLength="216" x="60.403" y="400.6792">«timeout = {cycleWaitTime}»</text><text fill="#000000" font-family="monospace" font-size="13" lengthAdjust="spacing" textLength="80" x="60.403" y="417.6528">«action» {</text><text fill="#000000" font-family="monospace" font-size="13" lengthAdjust="spacing" textLength="48" x="60.403" y="434.6265">next()</text><text fill="#000000" font-family="monospace" font-size="13" lengthAdjust="spacing" textLength="56" x="60.403" y="451.6001">start()</text><text fill="#000000" font-family="monospace" font-size="13" lengthAdjust="spacing" textLength="8" x="60.403" y="468.5737">}</text><!--MD5=[74587d36db9700cd1fbb3ca4f89842b2]
link WAITING to WAITING--><path d="M351.958,577.8563 C362.169,578.6422 369.903,583.2266 369.903,591.6094 C369.903,598.5514 364.599,602.8885 356.977,604.6206 " fill="none" id="WAITING-to-WAITING" style="stroke:#A80036;stroke-width:1.0;"/><polygon fill="#A80036" points="351.958,605.3625,361.4463,608.0029,356.9042,604.631,360.276,600.0889,351.958,605.3625" style="stroke:#A80036;stroke-width:1.0;"/><text fill="#000000" font-family="monospace" font-size="13" lengthAdjust="spacing" textLength="48" x="375.903" y="579.6792">SWITCH</text><text fill="#000000" font-family="monospace" font-size="13" lengthAdjust="spacing" textLength="80" x="375.903" y="596.6528">«action» {</text><text fill="#000000" font-family="monospace" font-size="13" lengthAdjust="spacing" textLength="8" x="375.903" y="613.6265">}</text><!--MD5=[d29183765590280e2d67df14938ed998]
link WAITING to STOPPED--><path d="M352.157,585.3285 C379.485,579.5306 414.765,567.4826 435.403,542.6094 C510.822,451.7154 474.242,399.1904 485.403,281.6094 C488.301,251.0804 497.057,240.9754 485.403,212.6094 C466.123,165.6814 420.922,128.0134 386.072,104.5134 " fill="none" id="WAITING-to-STOPPED" style="stroke:#A80036;stroke-width:1.0;"/><polygon fill="#A80036" points="381.875,101.7184,387.1466,110.0376,386.0359,104.4909,391.5826,103.3802,381.875,101.7184" style="stroke:#A80036;stroke-width:1.0;"/><text fill="#000000" font-family="monospace" font-size="13" lengthAdjust="spacing" textLength="32" x="485.403" y="313.6792">STOP</text><text fill="#000000" font-family="monospace" font-size="13" lengthAdjust="spacing" textLength="80" x="485.403" y="330.6528">«action» {</text><text fill="#000000" font-family="monospace" font-size="13" lengthAdjust="spacing" textLength="48" x="485.403" y="347.6265">stop()</text><text fill="#000000" font-family="monospace" font-size="13" lengthAdjust="spacing" textLength="8" x="485.403" y="364.6001">}</text><!--MD5=[dc9076bb65048f63b663cc246032782a]
@startuml
skinparam StateFontName Helvetica
skinparam defaultFontName Monospaced
skinparam state {
    BackgroundColor LightBlue
}
state TrafficIntersectionFSM {
STOPPED - -> GOING : START\l<<action>> {\lstart()\l}
STOPPED - -> STOPPED : STOPPED\l<<action>> {\l}
GOING - -> STOPPING : <<timeout = {cycleTime}>>\l<<action>> {\lstop()\l}
GOING - -> STOPPING : SWITCH\l<<action>> {\lstop()\l}
GOING - -> STOPPED : STOP\l<<action>> {\lstop()\l}
STOPPING - -> WAITING : STOPPED\l<<action>> {\l}
STOPPING - -> WAITING : SWITCH\l<<action>> {\l}
STOPPING - -> STOPPED : STOP\l<<action>> {\lstop()\l}
WAITING - -> GOING : <<timeout = {cycleWaitTime}>>\l<<action>> {\lnext()\lstart()\l}
WAITING - -> WAITING : SWITCH\l<<action>> {\l}
WAITING - -> STOPPED : STOP\l<<action>> {\lstop()\l}
}
@enduml

PlantUML version 1.2021.7(Sun May 23 14:40:07 CAT 2021)
(GPL source distribution)
Java Runtime: OpenJDK Runtime Environment
JVM: OpenJDK 64-Bit Server VM
Default Encoding: Cp1252
Language: en
Country: ZA
--></g></svg>