<?xml version="1.0" encoding="UTF-8" standalone="no"?><svg xmlns="http://www.w3.org/2000/svg" xmlns:xlink="http://www.w3.org/1999/xlink" contentScriptType="application/ecmascript" contentStyleType="text/css" height="542px" preserveAspectRatio="none" style="width:797px;height:542px;background:#FFFFFF;" version="1.1" viewBox="0 0 797 542" width="797px" zoomAndPan="magnify"><defs><filter height="300%" id="f17ahtktntx57h" width="300%" x="-1" y="-1"><feGaussianBlur result="blurOut" stdDeviation="2.0"/><feColorMatrix in="blurOut" result="blurOut2" type="matrix" values="0 0 0 0 0 0 0 0 0 0 0 0 0 0 0 0 0 0 .4 0"/><feOffset dx="4.0" dy="4.0" in="blurOut2" result="blurOut3"/><feBlend in="SourceGraphic" in2="blurOut3" mode="normal"/></filter></defs><g><rect fill="#ADD8E6" filter="url(#f17ahtktntx57h)" height="523.6094" rx="12.5" ry="12.5" style="stroke:#A80036;stroke-width:1.5;" width="778.7786" x="7" y="7"/><rect fill="#FFFFFF" height="490" rx="12.5" ry="12.5" style="stroke:#FFFFFF;stroke-width:1.0;" width="772.7786" x="10" y="37.6094"/><line style="stroke:#A80036;stroke-width:1.5;" x1="7" x2="785.7786" y1="34.6094" y2="34.6094"/><text fill="#000000" font-family="Helvetica" font-size="14" lengthAdjust="spacing" textLength="142" x="325.3893" y="26.5332">TrafficIntersectionFSM</text><g id="TrafficIntersectionFSM.STOPPED"><rect fill="#ADD8E6" filter="url(#f17ahtktntx57h)" height="50" rx="12.5" ry="12.5" style="stroke:#A80036;stroke-width:1.5;" width="86" x="371.7786" y="46.6094"/><line style="stroke:#A80036;stroke-width:1.5;" x1="371.7786" x2="457.7786" y1="74.2188" y2="74.2188"/><text fill="#000000" font-family="Helvetica" font-size="14" lengthAdjust="spacing" textLength="66" x="381.7786" y="66.1426">STOPPED</text></g><g id="TrafficIntersectionFSM.GOING"><rect fill="#ADD8E6" filter="url(#f17ahtktntx57h)" height="50" rx="12.5" ry="12.5" style="stroke:#A80036;stroke-width:1.5;" width="65" x="55.2787" y="150.6094"/><line style="stroke:#A80036;stroke-width:1.5;" x1="55.2787" x2="120.2787" y1="178.2188" y2="178.2188"/><text fill="#000000" font-family="Helvetica" font-size="14" lengthAdjust="spacing" textLength="45" x="65.2787" y="170.1426">GOING</text></g><g id="TrafficIntersectionFSM.STOPPING"><rect fill="#ADD8E6" filter="url(#f17ahtktntx57h)" height="50" rx="12.5" ry="12.5" style="stroke:#A80036;stroke-width:1.5;" width="90" x="42.7787" y="254.6094"/><line style="stroke:#A80036;stroke-width:1.5;" x1="42.7787" x2="132.7787" y1="282.2188" y2="282.2188"/><text fill="#000000" font-family="Helvetica" font-size="14" lengthAdjust="spacing" textLength="70" x="52.7787" y="274.1426">STOPPING</text></g><g id="TrafficIntersectionFSM.WAITING_STOPPED"><rect fill="#ADD8E6" filter="url(#f17ahtktntx57h)" height="50" rx="12.5" ry="12.5" style="stroke:#A80036;stroke-width:1.5;" width="151" x="43.2787" y="462.6094"/><line style="stroke:#A80036;stroke-width:1.5;" x1="43.2787" x2="194.2787" y1="490.2188" y2="490.2188"/><text fill="#000000" font-family="Helvetica" font-size="14" lengthAdjust="spacing" textLength="131" x="53.2787" y="482.1426">WAITING_STOPPED</text></g><g id="TrafficIntersectionFSM.WAITING"><rect fill="#ADD8E6" filter="url(#f17ahtktntx57h)" height="50" rx="12.5" ry="12.5" style="stroke:#A80036;stroke-width:1.5;" width="77" x="140.2786" y="358.6094"/><line style="stroke:#A80036;stroke-width:1.5;" x1="140.2786" x2="217.2786" y1="386.2188" y2="386.2188"/><text fill="#000000" font-family="Helvetica" font-size="14" lengthAdjust="spacing" textLength="57" x="150.2786" y="378.1426">WAITING</text></g><!--MD5=[077e120bfbc30b5bd4099620b18cdaed]
link STOPPED to GOING--><path d="M371.6926,86.0494 C307.2556,106.1484 186.8236,143.7144 125.6016,162.8114 " fill="none" id="STOPPED-to-GOING" style="stroke:#A80036;stroke-width:1.0;"/><polygon fill="#A80036" points="120.5815,164.3774,130.3642,165.5172,125.3549,162.8891,127.983,157.8798,120.5815,164.3774" style="stroke:#A80036;stroke-width:1.0;"/><text fill="#000000" font-family="monospace" font-size="13" lengthAdjust="spacing" textLength="40" x="272.7786" y="128.6792">START</text><!--MD5=[75a204fa9372a53b122c3788c8835dae]
link STOPPED to STOPPED--><path d="M457.8146,62.0314 C468.1336,62.7804 475.7786,65.9724 475.7786,71.6094 C475.7786,76.2774 470.5356,79.2694 462.8736,80.5844 " fill="none" id="STOPPED-to-STOPPED" style="stroke:#A80036;stroke-width:1.0;"/><polygon fill="#A80036" points="457.8146,81.1874,467.2246,84.0946,462.7795,80.5959,466.2782,76.1508,457.8146,81.1874" style="stroke:#A80036;stroke-width:1.0;"/><text fill="#000000" font-family="monospace" font-size="13" lengthAdjust="spacing" textLength="56" x="481.7786" y="76.6792">STOPPED</text><!--MD5=[2e57a40ebf806e158066d44368eeb506]
link GOING to STOPPING--><path d="M87.7787,200.7824 C87.7787,215.2844 87.7787,233.8324 87.7787,249.1834 " fill="none" id="GOING-to-STOPPING" style="stroke:#A80036;stroke-width:1.0;"/><polygon fill="#A80036" points="87.7787,254.2564,91.7787,245.2564,87.7787,249.2564,83.7787,245.2564,87.7787,254.2564" style="stroke:#A80036;stroke-width:1.0;"/><text fill="#000000" font-family="monospace" font-size="13" lengthAdjust="spacing" textLength="184" x="88.7787" y="232.6792">«timeout = {cycleTime}»</text><!--MD5=[2e57a40ebf806e158066d44368eeb506]
link GOING to STOPPING--><path d="M55.0325,194.5734 C46.5434,200.9654 38.475,209.0074 33.7787,218.6094 C28.0713,230.2794 33.577,241.3644 42.9239,250.7584 " fill="none" id="GOING-to-STOPPING-1" style="stroke:#A80036;stroke-width:1.0;"/><polygon fill="#A80036" points="46.8318,254.4074,42.9822,245.342,43.1768,250.9956,37.5233,251.1901,46.8318,254.4074" style="stroke:#A80036;stroke-width:1.0;"/><text fill="#000000" font-family="monospace" font-size="13" lengthAdjust="spacing" textLength="48" x="34.7787" y="232.6792">SWITCH</text><!--MD5=[98250bfde97d800a7ce46aa557768b1d]
link GOING to WAITING_STOPPED--><path d="M55.2661,191.4314 C44.5099,198.1014 33.7681,207.1054 27.7787,218.6094 C21.3233,231.0084 18,244.1854 33.7787,304.6094 C48.7044,361.7664 81.0942,422.9696 101.3011,457.8385 " fill="none" id="GOING-to-WAITING_STOPPED" style="stroke:#A80036;stroke-width:1.0;"/><polygon fill="#A80036" points="103.9464,462.3731,102.8663,452.5836,101.4269,458.0543,95.9562,456.6149,103.9464,462.3731" style="stroke:#A80036;stroke-width:1.0;"/><text fill="#000000" font-family="monospace" font-size="13" lengthAdjust="spacing" textLength="32" x="45.7787" y="336.6792">STOP</text><!--MD5=[efa6eca18e90a7ace7d508dcd6aec675]
link STOPPING to WAITING--><path d="M109.3444,304.7824 C122.6206,319.6624 139.6966,338.8034 153.5926,354.3784 " fill="none" id="STOPPING-to-WAITING" style="stroke:#A80036;stroke-width:1.0;"/><polygon fill="#A80036" points="157.0526,358.2564,154.0465,348.8775,153.7243,354.5252,148.0766,354.2029,157.0526,358.2564" style="stroke:#A80036;stroke-width:1.0;"/><text fill="#000000" font-family="monospace" font-size="13" lengthAdjust="spacing" textLength="56" x="139.7786" y="336.6792">STOPPED</text><!--MD5=[fe08ae31c024323f5aea0bb0522b7d22]
link STOPPING to STOPPING--><path d="M132.7996,270.0744 C143.1646,270.8954 150.7786,274.0744 150.7786,279.6094 C150.7786,284.1934 145.5566,287.1604 137.8756,288.5124 " fill="none" id="STOPPING-to-STOPPING" style="stroke:#A80036;stroke-width:1.0;"/><polygon fill="#A80036" points="132.7996,289.1444,142.2254,292.0002,137.7612,288.5258,141.2356,284.0616,132.7996,289.1444" style="stroke:#A80036;stroke-width:1.0;"/><text fill="#000000" font-family="monospace" font-size="13" lengthAdjust="spacing" textLength="48" x="156.7786" y="284.6792">SWITCH</text><!--MD5=[e60b05149855d5aa632bd54b0b540644]
link STOPPING to WAITING_STOPPED--><path d="M88.0106,304.8504 C88.6001,330.7264 90.544,372.8374 96.7787,408.6094 C99.6437,425.0477 104.5756,442.9951 109.0445,457.5255 " fill="none" id="STOPPING-to-WAITING_STOPPED" style="stroke:#A80036;stroke-width:1.0;"/><polygon fill="#A80036" points="110.5387,462.3151,111.6768,452.5322,109.0496,457.542,104.0398,454.9148,110.5387,462.3151" style="stroke:#A80036;stroke-width:1.0;"/><text fill="#000000" font-family="monospace" font-size="13" lengthAdjust="spacing" textLength="32" x="97.7787" y="388.6792">STOP</text><!--MD5=[15d90bb837becb4119098d374e4b4cc7]
link WAITING to GOING--><path d="M210.9866,358.4204 C251.4066,325.1474 311.2666,264.2014 274.7786,218.6094 C256.4736,195.7374 174.8786,184.4584 125.7196,179.6464 " fill="none" id="WAITING-to-GOING" style="stroke:#A80036;stroke-width:1.0;"/><polygon fill="#A80036" points="120.4798,179.1454,129.0584,183.9835,125.4571,179.6211,129.8196,176.0198,120.4798,179.1454" style="stroke:#A80036;stroke-width:1.0;"/><text fill="#000000" font-family="monospace" font-size="13" lengthAdjust="spacing" textLength="216" x="287.7786" y="284.6792">«timeout = {cycleWaitTime}»</text><!--MD5=[74587d36db9700cd1fbb3ca4f89842b2]
link WAITING to WAITING--><path d="M217.3336,373.9454 C227.5446,374.4974 235.2786,377.7184 235.2786,383.6094 C235.2786,388.4874 229.9746,391.5354 222.3526,392.7524 " fill="none" id="WAITING-to-WAITING" style="stroke:#A80036;stroke-width:1.0;"/><polygon fill="#A80036" points="217.3336,393.2734,226.6982,396.3237,222.307,392.7576,225.873,388.3663,217.3336,393.2734" style="stroke:#A80036;stroke-width:1.0;"/><text fill="#000000" font-family="monospace" font-size="13" lengthAdjust="spacing" textLength="48" x="241.2786" y="388.6792">SWITCH</text><!--MD5=[e2d9a844f47169489d4c1891b9c3d62f]
link WAITING to WAITING_STOPPED--><path d="M164.5596,408.7824 C155.9546,423.4105 144.9276,442.1556 135.8526,457.5836 " fill="none" id="WAITING-to-WAITING_STOPPED" style="stroke:#A80036;stroke-width:1.0;"/><polygon fill="#A80036" points="133.1036,462.2569,141.1144,456.5273,135.6386,457.9471,134.2188,452.4714,133.1036,462.2569" style="stroke:#A80036;stroke-width:1.0;"/><text fill="#000000" font-family="monospace" font-size="13" lengthAdjust="spacing" textLength="32" x="153.7786" y="440.6792">STOP</text><!--MD5=[6a3673ff49521e1ff5d6d247a82b4be7]
link WAITING_STOPPED to STOPPED--><path d="M194.5816,483.8019 C316.5386,477.1952 542.7786,455.3993 542.7786,384.6094 C542.7786,174.6094 542.7786,174.6094 542.7786,174.6094 C542.7786,132.1864 499.2446,104.5534 462.9536,88.8884 " fill="none" id="WAITING_STOPPED-to-STOPPED" style="stroke:#A80036;stroke-width:1.0;"/><polygon fill="#A80036" points="458.1136,86.8504,464.8559,94.0296,462.7218,88.7908,467.9606,86.6566,458.1136,86.8504" style="stroke:#A80036;stroke-width:1.0;"/><text fill="#000000" font-family="monospace" font-size="13" lengthAdjust="spacing" textLength="232" x="543.7786" y="284.6792">«timeout = {cycleWaitTime/2}»</text><!--MD5=[8588b100c0c06bd25bab8902a24aa884]
@startuml
skinparam StateFontName Helvetica
skinparam defaultFontName Monospaced
skinparam state {
    BackgroundColor LightBlue
}
state TrafficIntersectionFSM {
STOPPED - -> GOING : START
STOPPED - -> STOPPED : STOPPED
GOING - -> STOPPING : <<timeout = {cycleTime}>>
GOING - -> STOPPING : SWITCH
GOING - -> WAITING_STOPPED : STOP
STOPPING - -> WAITING : STOPPED
STOPPING - -> STOPPING : SWITCH
STOPPING - -> WAITING_STOPPED : STOP
WAITING - -> GOING : <<timeout = {cycleWaitTime}>>
WAITING - -> WAITING : SWITCH
WAITING - -> WAITING_STOPPED : STOP
WAITING_STOPPED - -> STOPPED : <<timeout = {cycleWaitTime/2}>>
}
@enduml

PlantUML version 1.2021.7(Sun May 23 14:40:07 CAT 2021)
(GPL source distribution)
Java Runtime: OpenJDK Runtime Environment
JVM: OpenJDK 64-Bit Server VM
Default Encoding: Cp1252
Language: en
Country: ZA
--></g></svg>