<?xml version="1.0" encoding="UTF-8" standalone="no"?><svg xmlns="http://www.w3.org/2000/svg" xmlns:xlink="http://www.w3.org/1999/xlink" contentScriptType="application/ecmascript" contentStyleType="text/css" height="788px" preserveAspectRatio="none" style="width:1241px;height:788px;background:#FFFFFF;" version="1.1" viewBox="0 0 1241 788" width="1241px" zoomAndPan="magnify"><defs><filter height="300%" id="fhzmgp9hcpnkk" width="300%" x="-1" y="-1"><feGaussianBlur result="blurOut" stdDeviation="2.0"/><feColorMatrix in="blurOut" result="blurOut2" type="matrix" values="0 0 0 0 0 0 0 0 0 0 0 0 0 0 0 0 0 0 .4 0"/><feOffset dx="4.0" dy="4.0" in="blurOut2" result="blurOut3"/><feBlend in="SourceGraphic" in2="blurOut3" mode="normal"/></filter></defs><g><rect fill="#F8F8F8" filter="url(#fhzmgp9hcpnkk)" height="769.6094" rx="12.5" ry="12.5" style="stroke:#383838;stroke-width:1.5;" width="1222.2941" x="7" y="7"/><rect fill="#FFFFFF" height="736" rx="12.5" ry="12.5" style="stroke:#FFFFFF;stroke-width:1.0;" width="1216.2941" x="10" y="37.6094"/><line style="stroke:#383838;stroke-width:1.5;" x1="7" x2="1229.2941" y1="34.6094" y2="34.6094"/><text fill="#000000" font-family="Helvetica" font-size="14" font-weight="bold" lengthAdjust="spacing" textLength="160" x="538.1471" y="26.5332">TrafficIntersectionFSM</text><g id="TrafficIntersectionFSM.STOPPED"><rect fill="#F8F8F8" filter="url(#fhzmgp9hcpnkk)" height="50" rx="12.5" ry="12.5" style="stroke:#383838;stroke-width:1.5;" width="85" x="653.7941" y="51.6094"/><line style="stroke:#383838;stroke-width:1.5;" x1="653.7941" x2="738.7941" y1="79.2188" y2="79.2188"/><text fill="#000000" font-family="Helvetica" font-size="14" font-weight="bold" lengthAdjust="spacing" textLength="65" x="663.7941" y="71.1426">STOPPED</text></g><g id="TrafficIntersectionFSM.GOING"><rect fill="#F8F8F8" filter="url(#fhzmgp9hcpnkk)" height="50" rx="12.5" ry="12.5" style="stroke:#383838;stroke-width:1.5;" width="67" x="313.7941" y="212.6094"/><line style="stroke:#383838;stroke-width:1.5;" x1="313.7941" x2="380.7941" y1="240.2188" y2="240.2188"/><text fill="#000000" font-family="Helvetica" font-size="14" font-weight="bold" lengthAdjust="spacing" textLength="47" x="323.7941" y="232.1426">GOING</text></g><g id="TrafficIntersectionFSM.STOPPING"><rect fill="#F8F8F8" filter="url(#fhzmgp9hcpnkk)" height="50" rx="12.5" ry="12.5" style="stroke:#383838;stroke-width:1.5;" width="91" x="262.7941" y="385.6094"/><line style="stroke:#383838;stroke-width:1.5;" x1="262.7941" x2="353.7941" y1="413.2188" y2="413.2188"/><text fill="#000000" font-family="Helvetica" font-size="14" font-weight="bold" lengthAdjust="spacing" textLength="71" x="272.7941" y="405.1426">STOPPING</text></g><g id="TrafficIntersectionFSM.WAITING_STOPPED"><rect fill="#F8F8F8" filter="url(#fhzmgp9hcpnkk)" height="50" rx="12.5" ry="12.5" style="stroke:#383838;stroke-width:1.5;" width="152" x="297.2941" y="708.6094"/><line style="stroke:#383838;stroke-width:1.5;" x1="297.2941" x2="449.2941" y1="736.2188" y2="736.2188"/><text fill="#000000" font-family="Helvetica" font-size="14" font-weight="bold" lengthAdjust="spacing" textLength="132" x="307.2941" y="728.1426">WAITING_STOPPED</text></g><g id="TrafficIntersectionFSM.WAITING"><rect fill="#F8F8F8" filter="url(#fhzmgp9hcpnkk)" height="50" rx="12.5" ry="12.5" style="stroke:#383838;stroke-width:1.5;" width="79" x="496.7941" y="564.6094"/><line style="stroke:#383838;stroke-width:1.5;" x1="496.7941" x2="575.7941" y1="592.2188" y2="592.2188"/><text fill="#000000" font-family="Helvetica" font-size="14" font-weight="bold" lengthAdjust="spacing" textLength="59" x="506.7941" y="584.1426">WAITING</text></g><!--MD5=[077e120bfbc30b5bd4099620b18cdaed]
link STOPPED to GOING--><path d="M653.4991,97.1064 C584.8871,128.3644 451.3281,189.2124 385.6451,219.1374 " fill="none" id="STOPPED-to-GOING" style="stroke:#383838;stroke-width:1.0;"/><polygon fill="#383838" points="381.0351,221.2374,390.8835,221.1462,385.5852,219.1645,387.5669,213.8661,381.0351,221.2374" style="stroke:#383838;stroke-width:1.0;"/><text fill="#000000" font-family="monospace" font-size="13" font-weight="bold" lengthAdjust="spacing" textLength="80" x="585.2941" y="139.6792">START -&gt; {</text><text fill="#000000" font-family="monospace" font-size="13" font-weight="bold" lengthAdjust="spacing" textLength="224" x="601.2941" y="156.6528">logger.info{"STOPPED:START"}</text><text fill="#000000" font-family="monospace" font-size="13" font-weight="bold" lengthAdjust="spacing" textLength="56" x="601.2941" y="173.6265">start()</text><text fill="#000000" font-family="monospace" font-size="13" font-weight="bold" lengthAdjust="spacing" textLength="8" x="585.2941" y="190.6001">}</text><!--MD5=[75a204fa9372a53b122c3788c8835dae]
link STOPPED to STOPPED--><path d="M738.9771,61.5054 C749.2111,62.6864 756.7941,67.7204 756.7941,76.6094 C756.7941,83.9704 751.5931,88.6884 743.9941,90.7634 " fill="none" id="STOPPED-to-STOPPED" style="stroke:#383838;stroke-width:1.0;"/><polygon fill="#383838" points="738.9771,91.7134,748.564,93.9696,743.8899,90.7834,747.0761,86.1092,738.9771,91.7134" style="stroke:#383838;stroke-width:1.0;"/><text fill="#000000" font-family="monospace" font-size="13" font-weight="bold" lengthAdjust="spacing" textLength="96" x="762.7941" y="64.6792">STOPPED -&gt; {</text><text fill="#000000" font-family="monospace" font-size="13" font-weight="bold" lengthAdjust="spacing" textLength="240" x="778.7941" y="81.6528">logger.info{"STOPPED:STOPPED"}</text><text fill="#000000" font-family="monospace" font-size="13" font-weight="bold" lengthAdjust="spacing" textLength="8" x="762.7941" y="98.6265">}</text><!--MD5=[2e57a40ebf806e158066d44368eeb506]
link GOING to STOPPING--><path d="M343.0461,262.9834 C338.9741,285.5554 332.4101,320.0014 325.2941,349.6094 C322.8591,359.7394 319.8531,370.7314 317.0481,380.5054 " fill="none" id="GOING-to-STOPPING" style="stroke:#383838;stroke-width:1.0;"/><polygon fill="#383838" points="315.6051,385.4954,321.9494,377.9622,316.9951,380.6925,314.2648,375.7381,315.6051,385.4954" style="stroke:#383838;stroke-width:1.0;"/><text fill="#000000" font-family="monospace" font-size="13" font-weight="bold" lengthAdjust="spacing" textLength="224" x="341.2941" y="294.6792">«timeout = {cycleTime}» -&gt; {</text><text fill="#000000" font-family="monospace" font-size="13" font-weight="bold" lengthAdjust="spacing" textLength="224" x="357.2941" y="311.6528">logger.info{"GOING:timeout"}</text><text fill="#000000" font-family="monospace" font-size="13" font-weight="bold" lengthAdjust="spacing" textLength="48" x="357.2941" y="328.6265">stop()</text><text fill="#000000" font-family="monospace" font-size="13" font-weight="bold" lengthAdjust="spacing" textLength="8" x="341.2941" y="345.6001">}</text><!--MD5=[2e57a40ebf806e158066d44368eeb506]
link GOING to STOPPING--><path d="M313.4971,238.8744 C249.8411,240.1674 115.9723,246.9264 87.2937,280.6094 C67.4132,303.9594 68.6653,325.2494 87.2937,349.6094 C107.8648,376.5104 198.9251,394.1784 257.5491,402.9894 " fill="none" id="GOING-to-STOPPING-1" style="stroke:#383838;stroke-width:1.0;"/><polygon fill="#383838" points="262.7651,403.7624,254.4486,398.4864,257.8191,403.0295,253.276,406.4,262.7651,403.7624" style="stroke:#383838;stroke-width:1.0;"/><text fill="#000000" font-family="monospace" font-size="13" font-weight="bold" lengthAdjust="spacing" textLength="88" x="88.2937" y="294.6792">SWITCH -&gt; {</text><text fill="#000000" font-family="monospace" font-size="13" font-weight="bold" lengthAdjust="spacing" textLength="216" x="104.2937" y="311.6528">logger.info{"GOING:SWITCH"}</text><text fill="#000000" font-family="monospace" font-size="13" font-weight="bold" lengthAdjust="spacing" textLength="48" x="104.2937" y="328.6265">stop()</text><text fill="#000000" font-family="monospace" font-size="13" font-weight="bold" lengthAdjust="spacing" textLength="8" x="88.2937" y="345.6001">}</text><!--MD5=[98250bfde97d800a7ce46aa557768b1d]
link GOING to WAITING_STOPPED--><path d="M313.7641,238.5154 C247.2211,239.1174 102.2117,244.6304 71.2937,280.6094 C42.1801,314.4884 18,428.9784 82.2937,540.6094 C130.2315,623.8424 230.5571,677.663 299.9011,706.5531 " fill="none" id="GOING-to-WAITING_STOPPED" style="stroke:#383838;stroke-width:1.0;"/><polygon fill="#383838" points="304.8391,708.5902,298.0451,701.4598,300.2171,706.6831,294.9938,708.855,304.8391,708.5902" style="stroke:#383838;stroke-width:1.0;"/><text fill="#000000" font-family="monospace" font-size="13" font-weight="bold" lengthAdjust="spacing" textLength="72" x="83.2937" y="485.6792">STOP -&gt; {</text><text fill="#000000" font-family="monospace" font-size="13" font-weight="bold" lengthAdjust="spacing" textLength="200" x="99.2937" y="502.6528">logger.info{"GOING:STOP"}</text><text fill="#000000" font-family="monospace" font-size="13" font-weight="bold" lengthAdjust="spacing" textLength="48" x="99.2937" y="519.6265">stop()</text><text fill="#000000" font-family="monospace" font-size="13" font-weight="bold" lengthAdjust="spacing" textLength="8" x="83.2937" y="536.6001">}</text><!--MD5=[efa6eca18e90a7ace7d508dcd6aec675]
link STOPPING to WAITING--><path d="M317.9781,435.7914 C331.1281,465.3714 357.5271,514.6964 396.2941,540.6094 C428.7591,562.3104 445.7011,544.9734 482.2941,558.6094 C485.3931,559.7644 488.5301,561.0764 491.6501,562.4914 " fill="none" id="STOPPING-to-WAITING" style="stroke:#383838;stroke-width:1.0;"/><polygon fill="#383838" points="496.5301,564.7914,490.0931,557.3372,492.0069,562.6605,486.6836,564.5743,496.5301,564.7914" style="stroke:#383838;stroke-width:1.0;"/><text fill="#000000" font-family="monospace" font-size="13" font-weight="bold" lengthAdjust="spacing" textLength="96" x="397.2941" y="494.1792">STOPPED -&gt; {</text><text fill="#000000" font-family="monospace" font-size="13" font-weight="bold" lengthAdjust="spacing" textLength="176" x="413.2941" y="511.1528">logger.info{"STOPPED"}</text><text fill="#000000" font-family="monospace" font-size="13" font-weight="bold" lengthAdjust="spacing" textLength="8" x="397.2941" y="528.1265">}</text><!--MD5=[fe08ae31c024323f5aea0bb0522b7d22]
link STOPPING to STOPPING--><path d="M353.9581,393.4144 C364.2591,394.9634 371.7941,400.6954 371.7941,410.6094 C371.7941,418.8194 366.6271,424.1614 359.0001,426.6344 " fill="none" id="STOPPING-to-STOPPING" style="stroke:#383838;stroke-width:1.0;"/><polygon fill="#383838" points="353.9581,427.8044,363.6287,429.6699,358.8291,426.6759,361.8231,421.8763,353.9581,427.8044" style="stroke:#383838;stroke-width:1.0;"/><text fill="#000000" font-family="monospace" font-size="13" font-weight="bold" lengthAdjust="spacing" textLength="88" x="377.7941" y="398.6792">SWITCH -&gt; {</text><text fill="#000000" font-family="monospace" font-size="13" font-weight="bold" lengthAdjust="spacing" textLength="168" x="393.7941" y="415.6528">logger.info{"SWITCH"}</text><text fill="#000000" font-family="monospace" font-size="13" font-weight="bold" lengthAdjust="spacing" textLength="8" x="377.7941" y="432.6265">}</text><!--MD5=[e60b05149855d5aa632bd54b0b540644]
link STOPPING to WAITING_STOPPED--><path d="M306.1001,435.9114 C303.2521,475.3834 300.4531,555.5654 317.2941,620.6094 C325.0771,650.6714 341.6091,682.0545 354.7031,703.9258 " fill="none" id="STOPPING-to-WAITING_STOPPED" style="stroke:#383838;stroke-width:1.0;"/><polygon fill="#383838" points="357.4411,708.4446,356.1994,698.6743,354.8506,704.168,349.3569,702.8191,357.4411,708.4446" style="stroke:#383838;stroke-width:1.0;"/><text fill="#000000" font-family="monospace" font-size="13" font-weight="bold" lengthAdjust="spacing" textLength="72" x="318.2941" y="577.6792">STOP -&gt; {</text><text fill="#000000" font-family="monospace" font-size="13" font-weight="bold" lengthAdjust="spacing" textLength="152" x="334.2941" y="594.6528">logger.info{"STOP"}</text><text fill="#000000" font-family="monospace" font-size="13" font-weight="bold" lengthAdjust="spacing" textLength="8" x="318.2941" y="611.6265">}</text><!--MD5=[15d90bb837becb4119098d374e4b4cc7]
link WAITING to GOING--><path d="M572.2191,564.4654 C579.5381,557.6804 586.2341,549.6494 590.2941,540.6094 C613.9651,487.8964 623.9111,324.4724 586.2941,280.6094 C560.8851,250.9824 447.0511,242.2404 386.1061,239.6714 " fill="none" id="WAITING-to-GOING" style="stroke:#383838;stroke-width:1.0;"/><polygon fill="#383838" points="381.0951,239.4684,389.9266,243.8277,386.091,239.6698,390.2489,235.8342,381.0951,239.4684" style="stroke:#383838;stroke-width:1.0;"/><text fill="#000000" font-family="monospace" font-size="13" font-weight="bold" lengthAdjust="spacing" textLength="256" x="613.2941" y="381.6792">«timeout = {cycleWaitTime}» -&gt; {</text><text fill="#000000" font-family="monospace" font-size="13" font-weight="bold" lengthAdjust="spacing" textLength="240" x="629.2941" y="398.6528">logger.info{"WAITING:timeout"}</text><text fill="#000000" font-family="monospace" font-size="13" font-weight="bold" lengthAdjust="spacing" textLength="48" x="629.2941" y="415.6265">next()</text><text fill="#000000" font-family="monospace" font-size="13" font-weight="bold" lengthAdjust="spacing" textLength="56" x="629.2941" y="432.6001">start()</text><text fill="#000000" font-family="monospace" font-size="13" font-weight="bold" lengthAdjust="spacing" textLength="8" x="613.2941" y="449.5737">}</text><!--MD5=[74587d36db9700cd1fbb3ca4f89842b2]
link WAITING to WAITING--><path d="M575.7991,575.8774 C586.0581,576.7214 593.7941,581.2984 593.7941,589.6094 C593.7941,596.4914 588.4891,600.8134 580.8391,602.5754 " fill="none" id="WAITING-to-WAITING" style="stroke:#383838;stroke-width:1.0;"/><polygon fill="#383838" points="575.7991,603.3414,585.2979,605.9437,580.7423,602.5901,584.0959,598.0345,575.7991,603.3414" style="stroke:#383838;stroke-width:1.0;"/><text fill="#000000" font-family="monospace" font-size="13" font-weight="bold" lengthAdjust="spacing" textLength="88" x="599.7941" y="577.6792">SWITCH -&gt; {</text><text fill="#000000" font-family="monospace" font-size="13" font-weight="bold" lengthAdjust="spacing" textLength="232" x="615.7941" y="594.6528">logger.info{"WAITING:SWITCH"}</text><text fill="#000000" font-family="monospace" font-size="13" font-weight="bold" lengthAdjust="spacing" textLength="8" x="599.7941" y="611.6265">}</text><!--MD5=[e2d9a844f47169489d4c1891b9c3d62f]
link WAITING to WAITING_STOPPED--><path d="M508.6431,614.6974 C479.9571,639.6874 435.1621,678.7122 405.0451,704.9487 " fill="none" id="WAITING-to-WAITING_STOPPED" style="stroke:#383838;stroke-width:1.0;"/><polygon fill="#383838" points="401.0801,708.4029,410.4936,705.5071,404.8501,705.1186,405.2387,699.4751,401.0801,708.4029" style="stroke:#383838;stroke-width:1.0;"/><text fill="#000000" font-family="monospace" font-size="13" font-weight="bold" lengthAdjust="spacing" textLength="72" x="480.2941" y="652.6792">STOP -&gt; {</text><text fill="#000000" font-family="monospace" font-size="13" font-weight="bold" lengthAdjust="spacing" textLength="216" x="496.2941" y="669.6528">logger.info{"WAITING:STOP"}</text><text fill="#000000" font-family="monospace" font-size="13" font-weight="bold" lengthAdjust="spacing" textLength="8" x="480.2941" y="686.6265">}</text><!--MD5=[6a3673ff49521e1ff5d6d247a82b4be7]
link WAITING_STOPPED to STOPPED--><path d="M449.3531,727.8811 C594.8511,716.7408 898.2941,682.4928 898.2941,590.6094 C898.2941,236.6094 898.2941,236.6094 898.2941,236.6094 C898.2941,178.7544 875.1871,162.1034 830.2941,125.6094 C805.4731,105.4324 771.4931,93.3874 743.9621,86.4104 " fill="none" id="WAITING_STOPPED-to-STOPPED" style="stroke:#383838;stroke-width:1.0;"/><polygon fill="#383838" points="738.9001,85.1654,746.6839,91.1997,743.7553,86.3599,748.5951,83.4313,738.9001,85.1654" style="stroke:#383838;stroke-width:1.0;"/><text fill="#000000" font-family="monospace" font-size="13" font-weight="bold" lengthAdjust="spacing" textLength="272" x="899.2941" y="390.1792">«timeout = {cycleWaitTime/2}» -&gt; {</text><text fill="#000000" font-family="monospace" font-size="13" font-weight="bold" lengthAdjust="spacing" textLength="304" x="915.2941" y="407.1528">logger.info{"WAITING_STOPPED:timeout"}</text><text fill="#000000" font-family="monospace" font-size="13" font-weight="bold" lengthAdjust="spacing" textLength="40" x="915.2941" y="424.1265">off()</text><text fill="#000000" font-family="monospace" font-size="13" font-weight="bold" lengthAdjust="spacing" textLength="8" x="899.2941" y="441.1001">}</text><!--MD5=[3a5f6be3ce96505890cdf2cde7dd18cf]
@startuml
skinparam monochrome true
skinparam StateFontName Helvetica
skinparam defaultFontName Monospaced
skinparam defaultFontStyle Bold
skinparam state {
    FontColor Black
    FontStyle Bold
}
state TrafficIntersectionFSM {
STOPPED - -> GOING : START -> {\l  logger.info{"STOPPED:START"}\l  start()\l}
STOPPED - -> STOPPED : STOPPED -> {\l  logger.info{"STOPPED:STOPPED"}\l}
GOING - -> STOPPING : <<timeout = {cycleTime}>> -> {\l  logger.info{"GOING:timeout"}\l  stop()\l}
GOING - -> STOPPING : SWITCH -> {\l  logger.info{"GOING:SWITCH"}\l  stop()\l}
GOING - -> WAITING_STOPPED : STOP -> {\l  logger.info{"GOING:STOP"}\l  stop()\l}
STOPPING - -> WAITING : STOPPED -> {\l  logger.info{"STOPPED"}\l}
STOPPING - -> STOPPING : SWITCH -> {\l  logger.info{"SWITCH"}\l}
STOPPING - -> WAITING_STOPPED : STOP -> {\l  logger.info{"STOP"}\l}
WAITING - -> GOING : <<timeout = {cycleWaitTime}>> -> {\l  logger.info{"WAITING:timeout"}\l  next()\l  start()\l}
WAITING - -> WAITING : SWITCH -> {\l  logger.info{"WAITING:SWITCH"}\l}
WAITING - -> WAITING_STOPPED : STOP -> {\l  logger.info{"WAITING:STOP"}\l}
WAITING_STOPPED - -> STOPPED : <<timeout = {cycleWaitTime/2}>> -> {\l  logger.info{"WAITING_STOPPED:timeout"}\l  off()\l}
}
@enduml

PlantUML version 1.2021.7(Sun May 23 14:40:07 CAT 2021)
(GPL source distribution)
Java Runtime: OpenJDK Runtime Environment
JVM: OpenJDK 64-Bit Server VM
Default Encoding: Cp1252
Language: en
Country: ZA
--></g></svg>