<?xml version="1.0" encoding="UTF-8" standalone="no"?><svg xmlns="http://www.w3.org/2000/svg" xmlns:xlink="http://www.w3.org/1999/xlink" contentScriptType="application/ecmascript" contentStyleType="text/css" height="542px" preserveAspectRatio="none" style="width:799px;height:542px;background:#FFFFFF;" version="1.1" viewBox="0 0 799 542" width="799px" zoomAndPan="magnify"><defs><filter height="300%" id="f1nnp8rzdgq7q6" width="300%" x="-1" y="-1"><feGaussianBlur result="blurOut" stdDeviation="2.0"/><feColorMatrix in="blurOut" result="blurOut2" type="matrix" values="0 0 0 0 0 0 0 0 0 0 0 0 0 0 0 0 0 0 .4 0"/><feOffset dx="4.0" dy="4.0" in="blurOut2" result="blurOut3"/><feBlend in="SourceGraphic" in2="blurOut3" mode="normal"/></filter></defs><g><rect fill="#F8F8F8" filter="url(#f1nnp8rzdgq7q6)" height="523.6094" rx="12.5" ry="12.5" style="stroke:#383838;stroke-width:1.5;" width="780.003" x="7" y="7"/><rect fill="#FFFFFF" height="490" rx="12.5" ry="12.5" style="stroke:#FFFFFF;stroke-width:1.0;" width="774.003" x="10" y="37.6094"/><line style="stroke:#383838;stroke-width:1.5;" x1="7" x2="787.003" y1="34.6094" y2="34.6094"/><text fill="#000000" font-family="Helvetica" font-size="14" font-weight="bold" lengthAdjust="spacing" textLength="160" x="317.0015" y="26.5332">TrafficIntersectionFSM</text><g id="TrafficIntersectionFSM.STOPPED"><rect fill="#F8F8F8" filter="url(#f1nnp8rzdgq7q6)" height="50" rx="12.5" ry="12.5" style="stroke:#383838;stroke-width:1.5;" width="85" x="373.503" y="46.6094"/><line style="stroke:#383838;stroke-width:1.5;" x1="373.503" x2="458.503" y1="74.2188" y2="74.2188"/><text fill="#000000" font-family="Helvetica" font-size="14" font-weight="bold" lengthAdjust="spacing" textLength="65" x="383.503" y="66.1426">STOPPED</text></g><g id="TrafficIntersectionFSM.GOING"><rect fill="#F8F8F8" filter="url(#f1nnp8rzdgq7q6)" height="50" rx="12.5" ry="12.5" style="stroke:#383838;stroke-width:1.5;" width="67" x="55.5029" y="150.6094"/><line style="stroke:#383838;stroke-width:1.5;" x1="55.5029" x2="122.5029" y1="178.2188" y2="178.2188"/><text fill="#000000" font-family="Helvetica" font-size="14" font-weight="bold" lengthAdjust="spacing" textLength="47" x="65.5029" y="170.1426">GOING</text></g><g id="TrafficIntersectionFSM.STOPPING"><rect fill="#F8F8F8" filter="url(#f1nnp8rzdgq7q6)" height="50" rx="12.5" ry="12.5" style="stroke:#383838;stroke-width:1.5;" width="91" x="43.5029" y="254.6094"/><line style="stroke:#383838;stroke-width:1.5;" x1="43.5029" x2="134.5029" y1="282.2188" y2="282.2188"/><text fill="#000000" font-family="Helvetica" font-size="14" font-weight="bold" lengthAdjust="spacing" textLength="71" x="53.5029" y="274.1426">STOPPING</text></g><g id="TrafficIntersectionFSM.WAITING_STOPPED"><rect fill="#F8F8F8" filter="url(#f1nnp8rzdgq7q6)" height="50" rx="12.5" ry="12.5" style="stroke:#383838;stroke-width:1.5;" width="152" x="44.0029" y="462.6094"/><line style="stroke:#383838;stroke-width:1.5;" x1="44.0029" x2="196.0029" y1="490.2188" y2="490.2188"/><text fill="#000000" font-family="Helvetica" font-size="14" font-weight="bold" lengthAdjust="spacing" textLength="132" x="54.0029" y="482.1426">WAITING_STOPPED</text></g><g id="TrafficIntersectionFSM.WAITING"><rect fill="#F8F8F8" filter="url(#f1nnp8rzdgq7q6)" height="50" rx="12.5" ry="12.5" style="stroke:#383838;stroke-width:1.5;" width="79" x="141.503" y="358.6094"/><line style="stroke:#383838;stroke-width:1.5;" x1="141.503" x2="220.503" y1="386.2188" y2="386.2188"/><text fill="#000000" font-family="Helvetica" font-size="14" font-weight="bold" lengthAdjust="spacing" textLength="59" x="151.503" y="378.1426">WAITING</text></g><!--MD5=[077e120bfbc30b5bd4099620b18cdaed]
link STOPPED to GOING--><path d="M373.253,85.9444 C309.267,105.9034 189.532,143.2514 127.882,162.4814 " fill="none" id="STOPPED-to-GOING" style="stroke:#383838;stroke-width:1.0;"/><polygon fill="#383838" points="122.8234,164.0604,132.6065,165.1967,127.5962,162.5704,130.2225,157.5601,122.8234,164.0604" style="stroke:#383838;stroke-width:1.0;"/><text fill="#000000" font-family="monospace" font-size="13" font-weight="bold" lengthAdjust="spacing" textLength="40" x="274.003" y="128.6792">START</text><!--MD5=[75a204fa9372a53b122c3788c8835dae]
link STOPPED to STOPPED--><path d="M458.686,62.0314 C468.92,62.7804 476.503,65.9724 476.503,71.6094 C476.503,76.2774 471.303,79.2694 463.703,80.5844 " fill="none" id="STOPPED-to-STOPPED" style="stroke:#383838;stroke-width:1.0;"/><polygon fill="#383838" points="458.686,81.1874,468.0984,84.0866,463.6504,80.5916,467.1453,76.1436,458.686,81.1874" style="stroke:#383838;stroke-width:1.0;"/><text fill="#000000" font-family="monospace" font-size="13" font-weight="bold" lengthAdjust="spacing" textLength="56" x="482.503" y="76.6792">STOPPED</text><!--MD5=[2e57a40ebf806e158066d44368eeb506]
link GOING to STOPPING--><path d="M89.0029,200.7824 C89.0029,215.2844 89.0029,233.8324 89.0029,249.1834 " fill="none" id="GOING-to-STOPPING" style="stroke:#383838;stroke-width:1.0;"/><polygon fill="#383838" points="89.0029,254.2564,93.0029,245.2564,89.0029,249.2564,85.0029,245.2564,89.0029,254.2564" style="stroke:#383838;stroke-width:1.0;"/><text fill="#000000" font-family="monospace" font-size="13" font-weight="bold" lengthAdjust="spacing" textLength="184" x="90.0029" y="232.6792">«timeout = {cycleTime}»</text><!--MD5=[2e57a40ebf806e158066d44368eeb506]
link GOING to STOPPING--><path d="M55.4093,195.2184 C47.2335,201.5034 39.5427,209.3274 35.0029,218.6094 C29.2955,230.2794 34.8013,241.3644 44.1481,250.7584 " fill="none" id="GOING-to-STOPPING-1" style="stroke:#383838;stroke-width:1.0;"/><polygon fill="#383838" points="48.0561,254.4074,44.2062,245.3421,44.4009,250.9956,38.7474,251.1903,48.0561,254.4074" style="stroke:#383838;stroke-width:1.0;"/><text fill="#000000" font-family="monospace" font-size="13" font-weight="bold" lengthAdjust="spacing" textLength="48" x="36.0029" y="232.6792">SWITCH</text><!--MD5=[98250bfde97d800a7ce46aa557768b1d]
link GOING to WAITING_STOPPED--><path d="M55.2253,192.2264 C44.8989,198.8114 34.7575,207.5564 29.0029,218.6094 C22.8634,230.4014 18,242.2204 34.0029,304.6094 C48.7113,361.9514 81.6092,423.095 102.1848,457.9021 " fill="none" id="GOING-to-WAITING_STOPPED" style="stroke:#383838;stroke-width:1.0;"/><polygon fill="#383838" points="104.8789,462.4285,103.7128,452.6489,102.3215,458.132,96.8384,456.7407,104.8789,462.4285" style="stroke:#383838;stroke-width:1.0;"/><text fill="#000000" font-family="monospace" font-size="13" font-weight="bold" lengthAdjust="spacing" textLength="32" x="46.0029" y="336.6792">STOP</text><!--MD5=[efa6eca18e90a7ace7d508dcd6aec675]
link STOPPING to WAITING--><path d="M110.8056,304.7824 C124.227,319.6624 141.491,338.8034 155.54,354.3784 " fill="none" id="STOPPING-to-WAITING" style="stroke:#383838;stroke-width:1.0;"/><polygon fill="#383838" points="159.038,358.2564,155.9787,348.8947,155.6885,354.5441,150.0391,354.2539,159.038,358.2564" style="stroke:#383838;stroke-width:1.0;"/><text fill="#000000" font-family="monospace" font-size="13" font-weight="bold" lengthAdjust="spacing" textLength="56" x="142.003" y="336.6792">STOPPED</text><!--MD5=[fe08ae31c024323f5aea0bb0522b7d22]
link STOPPING to STOPPING--><path d="M134.668,270.0974 C144.969,270.9544 152.503,274.1254 152.503,279.6094 C152.503,284.1514 147.336,287.1064 139.71,288.4744 " fill="none" id="STOPPING-to-STOPPING" style="stroke:#383838;stroke-width:1.0;"/><polygon fill="#383838" points="134.668,289.1214,144.1044,291.9417,139.6272,288.4841,143.0848,284.007,134.668,289.1214" style="stroke:#383838;stroke-width:1.0;"/><text fill="#000000" font-family="monospace" font-size="13" font-weight="bold" lengthAdjust="spacing" textLength="48" x="158.503" y="284.6792">SWITCH</text><!--MD5=[e60b05149855d5aa632bd54b0b540644]
link STOPPING to WAITING_STOPPED--><path d="M89.2348,304.8504 C89.8244,330.7264 91.7683,372.8374 98.0029,408.6094 C100.8679,425.0477 105.7998,442.9951 110.2687,457.5255 " fill="none" id="STOPPING-to-WAITING_STOPPED" style="stroke:#383838;stroke-width:1.0;"/><polygon fill="#383838" points="111.7629,462.3151,112.9009,452.5322,110.2737,457.542,105.264,454.9148,111.7629,462.3151" style="stroke:#383838;stroke-width:1.0;"/><text fill="#000000" font-family="monospace" font-size="13" font-weight="bold" lengthAdjust="spacing" textLength="32" x="99.0029" y="388.6792">STOP</text><!--MD5=[15d90bb837becb4119098d374e4b4cc7]
link WAITING to GOING--><path d="M212.957,358.3864 C253.049,325.0724 312.394,264.0804 276.003,218.6094 C257.848,195.9254 177.44,184.6454 128.163,179.7664 " fill="none" id="WAITING-to-GOING" style="stroke:#383838;stroke-width:1.0;"/><polygon fill="#383838" points="122.9045,179.2584,131.4774,184.1065,127.8812,179.7399,132.2479,176.1437,122.9045,179.2584" style="stroke:#383838;stroke-width:1.0;"/><text fill="#000000" font-family="monospace" font-size="13" font-weight="bold" lengthAdjust="spacing" textLength="216" x="289.003" y="284.6792">«timeout = {cycleWaitTime}»</text><!--MD5=[74587d36db9700cd1fbb3ca4f89842b2]
link WAITING to WAITING--><path d="M220.509,373.9604 C230.767,374.5534 238.503,377.7694 238.503,383.6094 C238.503,388.4454 233.198,391.4824 225.548,392.7204 " fill="none" id="WAITING-to-WAITING" style="stroke:#383838;stroke-width:1.0;"/><polygon fill="#383838" points="220.509,393.2584,229.8831,396.2791,225.4806,392.7269,229.0328,388.3244,220.509,393.2584" style="stroke:#383838;stroke-width:1.0;"/><text fill="#000000" font-family="monospace" font-size="13" font-weight="bold" lengthAdjust="spacing" textLength="48" x="244.503" y="388.6792">SWITCH</text><!--MD5=[e2d9a844f47169489d4c1891b9c3d62f]
link WAITING to WAITING_STOPPED--><path d="M166.547,408.7824 C157.798,423.4105 146.588,442.1556 137.362,457.5836 " fill="none" id="WAITING-to-WAITING_STOPPED" style="stroke:#383838;stroke-width:1.0;"/><polygon fill="#383838" points="134.567,462.2569,142.6191,456.5856,137.1331,457.9656,135.7531,452.4797,134.567,462.2569" style="stroke:#383838;stroke-width:1.0;"/><text fill="#000000" font-family="monospace" font-size="13" font-weight="bold" lengthAdjust="spacing" textLength="32" x="156.003" y="440.6792">STOP</text><!--MD5=[6a3673ff49521e1ff5d6d247a82b4be7]
link WAITING_STOPPED to STOPPED--><path d="M196.295,483.7753 C318.368,477.1369 544.003,455.3047 544.003,384.6094 C544.003,174.6094 544.003,174.6094 544.003,174.6094 C544.003,131.9144 499.909,104.2004 463.481,88.5884 " fill="none" id="WAITING_STOPPED-to-STOPPED" style="stroke:#383838;stroke-width:1.0;"/><polygon fill="#383838" points="458.625,86.5584,465.3855,93.7204,463.238,88.487,468.4714,86.3395,458.625,86.5584" style="stroke:#383838;stroke-width:1.0;"/><text fill="#000000" font-family="monospace" font-size="13" font-weight="bold" lengthAdjust="spacing" textLength="232" x="545.003" y="284.6792">«timeout = {cycleWaitTime/2}»</text><!--MD5=[6880d5fda46559c2def8c499b15d1935]
@startuml
skinparam monochrome true
skinparam StateFontName Helvetica
skinparam defaultFontName Monospaced
skinparam defaultFontStyle Bold
skinparam state {
    FontColor Black
    FontStyle Bold
}
state TrafficIntersectionFSM {
STOPPED - -> GOING : START
STOPPED - -> STOPPED : STOPPED
GOING - -> STOPPING : <<timeout = {cycleTime}>>
GOING - -> STOPPING : SWITCH
GOING - -> WAITING_STOPPED : STOP
STOPPING - -> WAITING : STOPPED
STOPPING - -> STOPPING : SWITCH
STOPPING - -> WAITING_STOPPED : STOP
WAITING - -> GOING : <<timeout = {cycleWaitTime}>>
WAITING - -> WAITING : SWITCH
WAITING - -> WAITING_STOPPED : STOP
WAITING_STOPPED - -> STOPPED : <<timeout = {cycleWaitTime/2}>>
}
@enduml

PlantUML version 1.2021.7(Sun May 23 14:40:07 CAT 2021)
(GPL source distribution)
Java Runtime: OpenJDK Runtime Environment
JVM: OpenJDK 64-Bit Server VM
Default Encoding: Cp1252
Language: en
Country: ZA
--></g></svg>